<?xml version="1.0" encoding="utf-8"?>
<!-- Generator: Adobe Illustrator 17.0.0, SVG Export Plug-In . SVG Version: 6.00 Build 0)  -->
<!DOCTYPE svg PUBLIC "-//W3C//DTD SVG 1.1//EN" "http://www.w3.org/Graphics/SVG/1.1/DTD/svg11.dtd">
<svg version="1.1" xmlns="http://www.w3.org/2000/svg" xmlns:xlink="http://www.w3.org/1999/xlink" x="0px" y="0px" width="750px"
	 height="500px" viewBox="0 0 750 500" enable-background="new 0 0 750 500" xml:space="preserve">
<g id="BACKGROUND">
	<g>
		<g>
			<g>
				<path fill="#FFFFFF" d="M254.34,461.551c0-0.943,0.385-1.858,1.043-2.531c0.672-0.656,1.586-1.041,2.529-1.041
					c0.943,0,1.872,0.385,2.529,1.041c1.33,1.331,1.33,3.732,0,5.061c-0.672,0.656-1.586,1.044-2.529,1.044
					c-0.943,0-1.857-0.388-2.529-1.044C254.725,463.407,254.34,462.494,254.34,461.551z"/>
			</g>
			<g>
				<path fill="#FFFFFF" d="M114.109,457.978c1.986,0,3.587,1.599,3.587,3.572l0,0c0,1.971-1.601,3.573-3.587,3.573l0,0
					c-1.972,0-3.573-1.602-3.573-3.573l0,0C110.536,459.577,112.137,457.978,114.109,457.978z M134.66,457.978
					c1.972,0,3.573,1.599,3.573,3.572l0,0c0,1.971-1.601,3.573-3.573,3.573l0,0c-1.972,0-3.573-1.602-3.573-3.573l0,0
					C131.087,459.577,132.688,457.978,134.66,457.978z M155.198,457.978c1.972,0,3.573,1.599,3.573,3.572l0,0
					c0,1.971-1.601,3.573-3.573,3.573l0,0c-1.972,0-3.573-1.602-3.573-3.573l0,0C151.624,459.577,153.226,457.978,155.198,457.978z
					 M175.749,457.978c1.972,0,3.573,1.599,3.573,3.572l0,0c0,1.971-1.601,3.573-3.573,3.573l0,0c-1.972,0-3.573-1.602-3.573-3.573
					l0,0C172.176,459.577,173.777,457.978,175.749,457.978z M196.287,457.978c1.972,0,3.573,1.599,3.573,3.572l0,0
					c0,1.971-1.601,3.573-3.573,3.573l0,0c-1.972,0-3.573-1.602-3.573-3.573l0,0C192.713,459.577,194.314,457.978,196.287,457.978z
					 M216.824,457.978c1.972,0,3.572,1.599,3.572,3.572l0,0c0,1.971-1.601,3.573-3.572,3.573l0,0c-1.959,0-3.573-1.602-3.573-3.573
					l0,0C213.251,459.577,214.865,457.978,216.824,457.978z M237.375,457.978c1.973,0,3.573,1.599,3.573,3.572l0,0
					c0,1.971-1.6,3.573-3.573,3.573l0,0c-1.973,0-3.572-1.602-3.572-3.573l0,0C233.803,459.577,235.402,457.978,237.375,457.978z"/>
			</g>
		</g>
		<g>
			<g>
				<path fill="#FFFFFF" d="M93.572,443.329c1.972,0,3.573,1.6,3.573,3.573l0,0c0,1.971-1.601,3.572-3.573,3.572l0,0
					c-1.972,0-3.573-1.602-3.573-3.572l0,0C89.998,444.929,91.6,443.329,93.572,443.329z M114.123,443.329
					c1.972,0,3.573,1.6,3.573,3.573l0,0c0,1.971-1.601,3.572-3.573,3.572l0,0c-1.972,0-3.573-1.602-3.573-3.572l0,0
					C110.55,444.929,112.151,443.329,114.123,443.329z M134.66,443.329c1.972,0,3.573,1.6,3.573,3.573l0,0
					c0,1.971-1.601,3.572-3.573,3.572l0,0c-1.972,0-3.573-1.602-3.573-3.572l0,0C131.087,444.929,132.688,443.329,134.66,443.329z
					 M155.198,443.329c1.972,0,3.573,1.6,3.573,3.573l0,0c0,1.971-1.601,3.572-3.573,3.572l0,0c-1.972,0-3.573-1.602-3.573-3.572
					l0,0C151.624,444.929,153.226,443.329,155.198,443.329z M175.749,443.329c1.972,0,3.573,1.6,3.573,3.573l0,0
					c0,1.971-1.601,3.572-3.573,3.572l0,0c-1.972,0-3.573-1.602-3.573-3.572l0,0C172.176,444.929,173.777,443.329,175.749,443.329z
					 M196.287,443.329c1.972,0,3.573,1.6,3.573,3.573l0,0c0,1.971-1.601,3.572-3.573,3.572l0,0c-1.972,0-3.573-1.602-3.573-3.572
					l0,0C192.713,444.929,194.314,443.329,196.287,443.329z M216.824,443.329c1.972,0,3.572,1.6,3.572,3.573l0,0
					c0,1.971-1.601,3.572-3.572,3.572l0,0c-1.973,0-3.573-1.602-3.573-3.572l0,0C213.251,444.929,214.852,443.329,216.824,443.329z
					 M237.375,443.329c1.973,0,3.573,1.6,3.573,3.573l0,0c0,1.971-1.6,3.572-3.573,3.572l0,0c-1.973,0-3.572-1.602-3.572-3.572l0,0
					C233.803,444.929,235.402,443.329,237.375,443.329z"/>
			</g>
		</g>
		<g>
			<g>
				<path fill="#FFFFFF" d="M73.034,428.68c1.972,0,3.573,1.6,3.573,3.573l0,0c0,1.971-1.601,3.573-3.573,3.573l0,0
					c-1.972,0-3.573-1.603-3.573-3.573l0,0C69.461,430.279,71.062,428.68,73.034,428.68z M93.572,428.68
					c1.972,0,3.573,1.6,3.573,3.573l0,0c0,1.971-1.601,3.573-3.573,3.573l0,0c-1.972,0-3.573-1.603-3.573-3.573l0,0
					C89.998,430.279,91.6,428.68,93.572,428.68z M114.123,428.68c1.972,0,3.559,1.6,3.559,3.573l0,0
					c0,1.971-1.586,3.573-3.559,3.573l0,0c-1.972,0-3.573-1.603-3.573-3.573l0,0C110.55,430.279,112.151,428.68,114.123,428.68z
					 M134.66,428.68c1.972,0,3.573,1.6,3.573,3.573l0,0c0,1.971-1.601,3.573-3.573,3.573l0,0c-1.972,0-3.573-1.603-3.573-3.573l0,0
					C131.087,430.279,132.688,428.68,134.66,428.68z M155.198,428.68c1.972,0,3.573,1.6,3.573,3.573l0,0
					c0,1.971-1.601,3.573-3.573,3.573l0,0c-1.972,0-3.573-1.603-3.573-3.573l0,0C151.624,430.279,153.226,428.68,155.198,428.68z
					 M175.749,428.68c1.972,0,3.573,1.6,3.573,3.573l0,0c0,1.971-1.601,3.573-3.573,3.573l0,0c-1.972,0-3.573-1.603-3.573-3.573l0,0
					C172.176,430.279,173.777,428.68,175.749,428.68z M196.287,428.68c1.972,0,3.573,1.6,3.573,3.573l0,0
					c0,1.971-1.601,3.573-3.573,3.573l0,0c-1.972,0-3.573-1.603-3.573-3.573l0,0C192.713,430.279,194.314,428.68,196.287,428.68z
					 M216.824,428.68c1.985,0,3.572,1.6,3.572,3.573l0,0c0,1.971-1.587,3.573-3.572,3.573l0,0c-1.973,0-3.573-1.603-3.573-3.573l0,0
					C213.251,430.279,214.852,428.68,216.824,428.68z"/>
			</g>
		</g>
		<g>
			<g>
				<path fill="#FFFFFF" d="M73.034,414.031c1.972,0,3.573,1.6,3.573,3.572l0,0c0,1.971-1.601,3.573-3.573,3.573l0,0
					c-1.972,0-3.573-1.603-3.573-3.573l0,0C69.461,415.631,71.062,414.031,73.034,414.031z M93.572,414.031
					c1.972,0,3.573,1.6,3.573,3.572l0,0c0,1.971-1.601,3.573-3.573,3.573l0,0c-1.972,0-3.573-1.603-3.573-3.573l0,0
					C89.998,415.631,91.6,414.031,93.572,414.031z M114.123,414.031c1.972,0,3.559,1.6,3.559,3.572l0,0
					c0,1.971-1.586,3.573-3.559,3.573l0,0c-1.972,0-3.573-1.603-3.573-3.573l0,0C110.55,415.631,112.151,414.031,114.123,414.031z
					 M134.66,414.031c1.972,0,3.573,1.6,3.573,3.572l0,0c0,1.971-1.601,3.573-3.573,3.573l0,0c-1.972,0-3.573-1.603-3.573-3.573l0,0
					C131.087,415.631,132.688,414.031,134.66,414.031z M155.198,414.031c1.972,0,3.573,1.6,3.573,3.572l0,0
					c0,1.971-1.601,3.573-3.573,3.573l0,0c-1.972,0-3.573-1.603-3.573-3.573l0,0C151.624,415.631,153.226,414.031,155.198,414.031z
					 M175.749,414.031c1.972,0,3.573,1.6,3.573,3.572l0,0c0,1.971-1.601,3.573-3.573,3.573l0,0c-1.972,0-3.573-1.603-3.573-3.573
					l0,0C172.176,415.631,173.777,414.031,175.749,414.031z M196.287,414.031c1.972,0,3.573,1.6,3.573,3.572l0,0
					c0,1.971-1.601,3.573-3.573,3.573l0,0c-1.972,0-3.573-1.603-3.573-3.573l0,0C192.713,415.631,194.314,414.031,196.287,414.031z"
					/>
			</g>
			<g>
				<path fill="#FFFFFF" d="M48.91,417.603c0-0.943,0.387-1.858,1.058-2.531c0.657-0.656,1.587-1.041,2.515-1.041
					c0.943,0,1.873,0.385,2.53,1.041c1.329,1.331,1.329,3.732,0,5.061c-0.657,0.656-1.587,1.044-2.53,1.044
					c-0.928,0-1.858-0.388-2.515-1.044C49.296,419.46,48.91,418.548,48.91,417.603z"/>
			</g>
		</g>
		<g>
			<g>
				<path fill="#FFFFFF" d="M73.034,399.382c1.972,0,3.573,1.6,3.573,3.573l0,0c0,1.971-1.601,3.573-3.573,3.573l0,0
					c-1.972,0-3.573-1.602-3.573-3.573l0,0C69.461,400.981,71.062,399.382,73.034,399.382z M93.572,399.382
					c1.972,0,3.573,1.6,3.573,3.573l0,0c0,1.971-1.601,3.573-3.573,3.573l0,0c-1.972,0-3.573-1.602-3.573-3.573l0,0
					C89.998,400.981,91.6,399.382,93.572,399.382z M114.123,399.382c1.972,0,3.559,1.6,3.559,3.573l0,0
					c0,1.971-1.586,3.573-3.559,3.573l0,0c-1.972,0-3.573-1.602-3.573-3.573l0,0C110.55,400.981,112.151,399.382,114.123,399.382z
					 M134.66,399.382c1.972,0,3.573,1.6,3.573,3.573l0,0c0,1.971-1.601,3.573-3.573,3.573l0,0c-1.972,0-3.573-1.602-3.573-3.573l0,0
					C131.087,400.981,132.688,399.382,134.66,399.382z M155.198,399.382c1.972,0,3.573,1.6,3.573,3.573l0,0
					c0,1.971-1.601,3.573-3.573,3.573l0,0c-1.972,0-3.573-1.602-3.573-3.573l0,0C151.624,400.981,153.226,399.382,155.198,399.382z
					 M175.749,399.382c1.972,0,3.573,1.6,3.573,3.573l0,0c0,1.971-1.601,3.573-3.573,3.573l0,0c-1.972,0-3.573-1.602-3.573-3.573
					l0,0C172.176,400.981,173.777,399.382,175.749,399.382z"/>
			</g>
			<g>
				<path fill="#FFFFFF" d="M48.91,402.955c0-0.943,0.387-1.859,1.058-2.532c0.657-0.655,1.587-1.041,2.515-1.041
					c0.943,0,1.873,0.386,2.53,1.041c1.329,1.332,1.329,3.732,0,5.061c-0.657,0.655-1.587,1.044-2.53,1.044
					c-0.928,0-1.858-0.389-2.515-1.044C49.296,404.811,48.91,403.898,48.91,402.955z"/>
			</g>
		</g>
	</g>
	<g>
		<g>
			<g>
				<path fill="#FFFFFF" d="M636.354,223.586c1.986,0,3.587,1.599,3.587,3.572l0,0c0,1.971-1.601,3.573-3.587,3.573l0,0
					c-1.972,0-3.573-1.602-3.573-3.573l0,0C632.781,225.185,634.383,223.586,636.354,223.586z M656.906,223.586
					c1.972,0,3.572,1.599,3.572,3.572l0,0c0,1.971-1.601,3.573-3.572,3.573l0,0c-1.973,0-3.573-1.602-3.573-3.573l0,0
					C653.333,225.185,654.934,223.586,656.906,223.586z M677.443,223.586c1.973,0,3.572,1.599,3.572,3.572l0,0
					c0,1.971-1.6,3.573-3.572,3.573l0,0c-1.973,0-3.573-1.602-3.573-3.573l0,0C673.87,225.185,675.471,223.586,677.443,223.586z
					 M697.994,223.586c1.973,0,3.573,1.599,3.573,3.572l0,0c0,1.971-1.601,3.573-3.573,3.573l0,0c-1.972,0-3.572-1.602-3.572-3.573
					l0,0C694.422,225.185,696.022,223.586,697.994,223.586z M718.532,223.586c1.972,0,3.573,1.599,3.573,3.572l0,0
					c0,1.971-1.602,3.573-3.573,3.573l0,0c-1.972,0-3.573-1.602-3.573-3.573l0,0C714.959,225.185,716.56,223.586,718.532,223.586z
					 M739.07,223.586c1.971,0,3.572,1.599,3.572,3.572l0,0c0,1.971-1.602,3.573-3.572,3.573l0,0c-1.959,0-3.574-1.602-3.574-3.573
					l0,0C735.496,225.185,737.111,223.586,739.07,223.586z"/>
			</g>
		</g>
		<g>
			<g>
				<path fill="#FFFFFF" d="M615.817,208.936c1.972,0,3.573,1.6,3.573,3.573l0,0c0,1.971-1.602,3.572-3.573,3.572l0,0
					c-1.972,0-3.573-1.602-3.573-3.572l0,0C612.244,210.536,613.846,208.936,615.817,208.936z M636.369,208.936
					c1.972,0,3.572,1.6,3.572,3.573l0,0c0,1.971-1.601,3.572-3.572,3.572l0,0c-1.973,0-3.574-1.602-3.574-3.572l0,0
					C632.795,210.536,634.396,208.936,636.369,208.936z M656.906,208.936c1.972,0,3.572,1.6,3.572,3.573l0,0
					c0,1.971-1.601,3.572-3.572,3.572l0,0c-1.973,0-3.573-1.602-3.573-3.572l0,0C653.333,210.536,654.934,208.936,656.906,208.936z
					 M677.443,208.936c1.973,0,3.572,1.6,3.572,3.573l0,0c0,1.971-1.6,3.572-3.572,3.572l0,0c-1.973,0-3.573-1.602-3.573-3.572l0,0
					C673.87,210.536,675.471,208.936,677.443,208.936z M697.994,208.936c1.973,0,3.573,1.6,3.573,3.573l0,0
					c0,1.971-1.601,3.572-3.573,3.572l0,0c-1.972,0-3.572-1.602-3.572-3.572l0,0C694.422,210.536,696.022,208.936,697.994,208.936z
					 M718.532,208.936c1.972,0,3.573,1.6,3.573,3.573l0,0c0,1.971-1.602,3.572-3.573,3.572l0,0c-1.972,0-3.573-1.602-3.573-3.572
					l0,0C714.959,210.536,716.56,208.936,718.532,208.936z M739.07,208.936c1.971,0,3.572,1.6,3.572,3.573l0,0
					c0,1.971-1.602,3.572-3.572,3.572l0,0c-1.973,0-3.574-1.602-3.574-3.572l0,0C735.496,210.536,737.098,208.936,739.07,208.936z"
					/>
			</g>
		</g>
		<g>
			<g>
				<path fill="#FFFFFF" d="M595.279,194.287c1.973,0,3.573,1.6,3.573,3.573l0,0c0,1.971-1.6,3.573-3.573,3.573l0,0
					c-1.972,0-3.572-1.602-3.572-3.573l0,0C591.707,195.887,593.308,194.287,595.279,194.287z M615.817,194.287
					c1.972,0,3.573,1.6,3.573,3.573l0,0c0,1.971-1.602,3.573-3.573,3.573l0,0c-1.972,0-3.573-1.602-3.573-3.573l0,0
					C612.244,195.887,613.846,194.287,615.817,194.287z M636.369,194.287c1.972,0,3.559,1.6,3.559,3.573l0,0
					c0,1.971-1.587,3.573-3.559,3.573l0,0c-1.973,0-3.574-1.602-3.574-3.573l0,0C632.795,195.887,634.396,194.287,636.369,194.287z
					 M656.906,194.287c1.972,0,3.572,1.6,3.572,3.573l0,0c0,1.971-1.601,3.573-3.572,3.573l0,0c-1.973,0-3.573-1.602-3.573-3.573
					l0,0C653.333,195.887,654.934,194.287,656.906,194.287z M677.443,194.287c1.973,0,3.572,1.6,3.572,3.573l0,0
					c0,1.971-1.6,3.573-3.572,3.573l0,0c-1.973,0-3.573-1.602-3.573-3.573l0,0C673.87,195.887,675.471,194.287,677.443,194.287z
					 M697.994,194.287c1.973,0,3.573,1.6,3.573,3.573l0,0c0,1.971-1.601,3.573-3.573,3.573l0,0c-1.972,0-3.572-1.602-3.572-3.573
					l0,0C694.422,195.887,696.022,194.287,697.994,194.287z M718.532,194.287c1.972,0,3.573,1.6,3.573,3.573l0,0
					c0,1.971-1.602,3.573-3.573,3.573l0,0c-1.972,0-3.573-1.602-3.573-3.573l0,0C714.959,195.887,716.56,194.287,718.532,194.287z
					 M739.07,194.287c1.984,0,3.572,1.6,3.572,3.573l0,0c0,1.971-1.588,3.573-3.572,3.573l0,0c-1.973,0-3.574-1.602-3.574-3.573l0,0
					C735.496,195.887,737.098,194.287,739.07,194.287z"/>
			</g>
		</g>
		<g>
			<g>
				<path fill="#FFFFFF" d="M595.279,179.639c1.973,0,3.573,1.6,3.573,3.572l0,0c0,1.971-1.6,3.573-3.573,3.573l0,0
					c-1.972,0-3.572-1.603-3.572-3.573l0,0C591.707,181.238,593.308,179.639,595.279,179.639z M615.817,179.639
					c1.972,0,3.573,1.6,3.573,3.572l0,0c0,1.971-1.602,3.573-3.573,3.573l0,0c-1.972,0-3.573-1.603-3.573-3.573l0,0
					C612.244,181.238,613.846,179.639,615.817,179.639z M636.369,179.639c1.972,0,3.559,1.6,3.559,3.572l0,0
					c0,1.971-1.587,3.573-3.559,3.573l0,0c-1.973,0-3.574-1.603-3.574-3.573l0,0C632.795,181.238,634.396,179.639,636.369,179.639z
					 M656.906,179.639c1.972,0,3.572,1.6,3.572,3.572l0,0c0,1.971-1.601,3.573-3.572,3.573l0,0c-1.973,0-3.573-1.603-3.573-3.573
					l0,0C653.333,181.238,654.934,179.639,656.906,179.639z M677.443,179.639c1.973,0,3.572,1.6,3.572,3.572l0,0
					c0,1.971-1.6,3.573-3.572,3.573l0,0c-1.973,0-3.573-1.603-3.573-3.573l0,0C673.87,181.238,675.471,179.639,677.443,179.639z
					 M697.994,179.639c1.973,0,3.573,1.6,3.573,3.572l0,0c0,1.971-1.601,3.573-3.573,3.573l0,0c-1.972,0-3.572-1.603-3.572-3.573
					l0,0C694.422,181.238,696.022,179.639,697.994,179.639z M718.532,179.639c1.972,0,3.573,1.6,3.573,3.572l0,0
					c0,1.971-1.602,3.573-3.573,3.573l0,0c-1.972,0-3.573-1.603-3.573-3.573l0,0C714.959,181.238,716.56,179.639,718.532,179.639z"
					/>
			</g>
			<g>
				<path fill="#FFFFFF" d="M571.155,183.211c0-0.943,0.387-1.858,1.058-2.531c0.658-0.656,1.588-1.041,2.516-1.041
					c0.943,0,1.873,0.385,2.53,1.041c1.329,1.331,1.329,3.732,0,5.061c-0.657,0.656-1.587,1.044-2.53,1.044
					c-0.928,0-1.857-0.388-2.516-1.044C571.542,185.067,571.155,184.155,571.155,183.211z"/>
			</g>
		</g>
		<g>
			<g>
				<path fill="#FFFFFF" d="M595.279,164.989c1.973,0,3.573,1.6,3.573,3.573l0,0c0,1.971-1.6,3.573-3.573,3.573l0,0
					c-1.972,0-3.572-1.602-3.572-3.573l0,0C591.707,166.589,593.308,164.989,595.279,164.989z M615.817,164.989
					c1.972,0,3.573,1.6,3.573,3.573l0,0c0,1.971-1.602,3.573-3.573,3.573l0,0c-1.972,0-3.573-1.602-3.573-3.573l0,0
					C612.244,166.589,613.846,164.989,615.817,164.989z M636.369,164.989c1.972,0,3.559,1.6,3.559,3.573l0,0
					c0,1.971-1.587,3.573-3.559,3.573l0,0c-1.973,0-3.574-1.602-3.574-3.573l0,0C632.795,166.589,634.396,164.989,636.369,164.989z
					 M656.906,164.989c1.972,0,3.572,1.6,3.572,3.573l0,0c0,1.971-1.601,3.573-3.572,3.573l0,0c-1.973,0-3.573-1.602-3.573-3.573
					l0,0C653.333,166.589,654.934,164.989,656.906,164.989z M677.443,164.989c1.973,0,3.572,1.6,3.572,3.573l0,0
					c0,1.971-1.6,3.573-3.572,3.573l0,0c-1.973,0-3.573-1.602-3.573-3.573l0,0C673.87,166.589,675.471,164.989,677.443,164.989z
					 M697.994,164.989c1.973,0,3.573,1.6,3.573,3.573l0,0c0,1.971-1.601,3.573-3.573,3.573l0,0c-1.972,0-3.572-1.602-3.572-3.573
					l0,0C694.422,166.589,696.022,164.989,697.994,164.989z"/>
			</g>
			<g>
				<path fill="#FFFFFF" d="M571.155,168.563c0-0.943,0.387-1.859,1.058-2.532c0.658-0.655,1.588-1.041,2.516-1.041
					c0.943,0,1.873,0.386,2.53,1.041c1.329,1.332,1.329,3.732,0,5.061c-0.657,0.655-1.587,1.044-2.53,1.044
					c-0.928,0-1.857-0.389-2.516-1.044C571.542,170.419,571.155,169.506,571.155,168.563z"/>
			</g>
		</g>
	</g>
	<radialGradient id="SVGID_1_" cx="132.0128" cy="326.496" r="1088.4966" gradientUnits="userSpaceOnUse">
		<stop  offset="0" style="stop-color:#E2E7E7"/>
		<stop  offset="0.0264" style="stop-color:#E4E9E9"/>
		<stop  offset="0.2775" style="stop-color:#F3F5F5"/>
		<stop  offset="0.5698" style="stop-color:#FCFDFD"/>
		<stop  offset="1" style="stop-color:#FFFFFF"/>
	</radialGradient>
	<rect fill="url(#SVGID_1_)" width="750" height="500"/>
</g>
<g id="OBJECTS">
	<g>
		<g>
			<g>
				<g>
					<g>
						<path fill="#CED6DB" d="M-24.316,397.358c-106.573,0-193.276-86.703-193.276-193.277
							c0-106.573,86.703-193.277,193.276-193.277c106.572,0,193.276,86.704,193.276,193.277
							C168.96,310.655,82.256,397.358-24.316,397.358z M-24.316,15.49c-103.99,0-188.59,84.602-188.59,188.592
							c0,103.99,84.6,188.589,188.59,188.589c103.989,0,188.593-84.6,188.593-188.589C164.277,100.091,79.673,15.49-24.316,15.49z"
							/>
					</g>
					<g>
						<path fill="#CED6DB" d="M-24.316,423.714c-121.106,0-219.632-98.527-219.632-219.632
							c0-121.105,98.525-219.631,219.632-219.631c121.104,0,219.634,98.525,219.634,219.631
							C195.318,325.186,96.789,423.714-24.316,423.714z M-24.316,2.018c-111.417,0-202.063,90.646-202.063,202.063
							c0,111.417,90.645,202.062,202.063,202.062c111.417,0,202.062-90.645,202.062-202.062
							C177.746,92.665,87.101,2.018-24.316,2.018z"/>
					</g>
					<g>
						<path fill="#CED6DB" d="M-24.316,463.772c-143.194,0-259.691-116.498-259.691-259.691
							c0-143.194,116.497-259.691,259.691-259.691c143.192,0,259.69,116.497,259.69,259.691
							C235.374,347.274,118.876,463.772-24.316,463.772z M-24.316-53.975c-142.294,0-258.056,115.763-258.056,258.056
							c0,142.292,115.762,258.056,258.056,258.056c142.292,0,258.056-115.764,258.056-258.056
							C233.74,61.789,117.976-53.975-24.316-53.975z"/>
					</g>
					<g>
						<path fill="#CED6DB" d="M-24.316,388.749c-101.825,0-184.667-82.842-184.667-184.667
							c0-101.827,82.842-184.668,184.667-184.668c101.825,0,184.667,82.841,184.667,184.668
							C160.352,305.907,77.509,388.749-24.316,388.749z M-24.316,21.048c-100.924,0-183.032,82.109-183.032,183.033
							c0,100.923,82.107,183.033,183.032,183.033c100.923,0,183.032-82.109,183.032-183.033
							C158.716,103.158,76.607,21.048-24.316,21.048z"/>
					</g>
					<circle fill="#CED6DB" cx="-24.315" cy="204.081" r="155.431"/>
					<circle fill="#DFE6EA" cx="-24.315" cy="204.694" r="139.906"/>
					<circle fill="#CED6DB" cx="-24.316" cy="204.081" r="108.44"/>
					<circle fill="#EFF2F4" cx="-24.316" cy="204.509" r="97.609"/>
					<g>
						<g>
							<g>
								<circle fill="#CED6DB" cx="-24.317" cy="-54.792" r="6.812"/>
							</g>
							<g>
								<circle fill="#CED6DB" cx="-24.317" cy="462.954" r="6.812"/>
							</g>
							<g>
								<circle fill="#CED6DB" cx="-283.189" cy="204.082" r="6.812"/>
							</g>
						</g>
						<g>
							<g>
								<circle fill="#CED6DB" cx="158.735" cy="21.03" r="6.81"/>
							</g>
							<g>
								<circle fill="#CED6DB" cx="-207.366" cy="387.133" r="6.81"/>
							</g>
							<g>
								<circle fill="#CED6DB" cx="158.735" cy="387.133" r="6.81"/>
							</g>
							<g>
								<circle fill="#CED6DB" cx="-207.366" cy="21.03" r="6.811"/>
							</g>
						</g>
					</g>
				</g>
				<g>
					<g>
						<g>
							<rect x="-26.316" y="-43.788" fill="#CED6DB" width="4" height="16.894"/>
						</g>
						<g>
							<rect x="-26.316" y="435.058" fill="#CED6DB" width="4" height="16.893"/>
						</g>
					</g>
					<g>
						<g>
							
								<rect x="-41.118" y="-37.195" transform="matrix(0.0349 0.9994 -0.9994 0.0349 -66.7036 -1.3135)" fill="#CED6DB" width="16.893" height="4"/>
						</g>
						<g>
							
								<rect x="-24.406" y="441.357" transform="matrix(0.0347 0.9994 -0.9994 0.0347 427.6848 443.9041)" fill="#CED6DB" width="16.893" height="4.001"/>
						</g>
					</g>
					<g>
						<g>
							
								<rect x="-49.463" y="-36.759" transform="matrix(0.0697 0.9976 -0.9976 0.0697 -72.831 8.5807)" fill="#CED6DB" width="16.894" height="4"/>
						</g>
						<g>
							
								<rect x="-16.062" y="440.92" transform="matrix(0.0697 0.9976 -0.9976 0.0697 434.759 419.6275)" fill="#CED6DB" width="16.897" height="4"/>
						</g>
					</g>
					<g>
						<g>
							
								<rect x="-57.788" y="-36.031" transform="matrix(0.1044 0.9945 -0.9945 0.1044 -78.0351 18.5943)" fill="#CED6DB" width="16.893" height="4"/>
						</g>
						<g>
							
								<rect x="-7.737" y="440.191" transform="matrix(0.1045 0.9945 -0.9945 0.1045 440.4053 395.2617)" fill="#CED6DB" width="16.895" height="4"/>
						</g>
					</g>
					<g>
						<g>
							
								<rect x="-66.082" y="-35.012" transform="matrix(0.139 0.9903 -0.9903 0.139 -82.3157 28.6542)" fill="#CED6DB" width="16.892" height="4"/>
						</g>
						<g>
							
								<rect x="0.559" y="439.173" transform="matrix(0.1391 0.9903 -0.9903 0.1391 444.6337 370.8664)" fill="#CED6DB" width="16.893" height="4"/>
						</g>
					</g>
					<g>
						<g>
							
								<rect x="-74.336" y="-33.704" transform="matrix(0.1736 0.9848 -0.9848 0.1736 -85.6749 38.6904)" fill="#CED6DB" width="16.891" height="4"/>
						</g>
						<g>
							
								<rect x="8.813" y="437.867" transform="matrix(0.1735 0.9848 -0.9848 0.1735 447.4576 346.5351)" fill="#CED6DB" width="16.893" height="4"/>
						</g>
					</g>
					<g>
						<g>
							
								<rect x="-82.541" y="-32.109" transform="matrix(0.2079 0.9781 -0.9781 0.2079 -88.1368 48.626)" fill="#CED6DB" width="16.895" height="4"/>
						</g>
						<g>
							
								<rect x="17.018" y="436.272" transform="matrix(0.2081 0.9781 -0.9781 0.2081 448.8409 322.1519)" fill="#CED6DB" width="16.895" height="4"/>
						</g>
					</g>
					<g>
						<g>
							
								<rect x="-90.684" y="-30.228" transform="matrix(0.242 0.9703 -0.9703 0.242 -89.7269 58.395)" fill="#CED6DB" width="16.894" height="4"/>
						</g>
						<g>
							
								<rect x="25.161" y="434.392" transform="matrix(0.242 0.9703 -0.9703 0.242 448.8997 298.1918)" fill="#CED6DB" width="16.893" height="4"/>
						</g>
					</g>
					<g>
						<g>
							
								<rect x="-98.756" y="-28.067" transform="matrix(0.2756 0.9613 -0.9613 0.2756 -90.4806 67.9284)" fill="#CED6DB" width="16.893" height="3.999"/>
						</g>
						<g>
							
								<rect x="33.233" y="432.23" transform="matrix(0.2758 0.9612 -0.9612 0.2758 447.5695 274.3958)" fill="#CED6DB" width="16.896" height="4"/>
						</g>
					</g>
					<g>
						<g>
							
								<rect x="-106.747" y="-25.624" transform="matrix(0.309 0.9511 -0.9511 0.309 -90.3922 77.1653)" fill="#CED6DB" width="16.895" height="4.001"/>
						</g>
						<g>
							
								<rect x="41.224" y="429.785" transform="matrix(0.309 0.951 -0.951 0.309 444.9693 251.1077)" fill="#CED6DB" width="16.893" height="4"/>
						</g>
					</g>
					<g>
						<g>
							
								<rect x="-114.649" y="-22.903" transform="matrix(0.3419 0.9397 -0.9397 0.3419 -89.5309 86.0447)" fill="#CED6DB" width="16.894" height="4"/>
						</g>
						<g>
							
								<rect x="49.125" y="427.064" transform="matrix(0.3421 0.9397 -0.9397 0.3421 441.0501 228.178)" fill="#CED6DB" width="16.894" height="4"/>
						</g>
					</g>
					<g>
						<g>
							
								<rect x="-122.45" y="-19.908" transform="matrix(0.3746 0.9272 -0.9272 0.3746 -87.9083 94.5045)" fill="#CED6DB" width="16.893" height="4"/>
						</g>
						<g>
							
								<rect x="56.926" y="424.072" transform="matrix(0.3747 0.9271 -0.9271 0.3747 435.901 205.7962)" fill="#CED6DB" width="16.897" height="3.999"/>
						</g>
					</g>
					<g>
						<g>
							
								<rect x="-130.144" y="-16.641" transform="matrix(0.4067 0.9135 -0.9135 0.4067 -85.5727 102.4891)" fill="#CED6DB" width="16.894" height="4"/>
						</g>
						<g>
							
								<rect x="64.621" y="420.806" transform="matrix(0.4067 0.9136 -0.9136 0.4067 429.6045 184.0874)" fill="#CED6DB" width="16.896" height="4"/>
						</g>
					</g>
					<g>
						<g>
							
								<rect x="-137.718" y="-13.111" transform="matrix(0.4385 0.8988 -0.8988 0.4385 -82.5782 109.9432)" fill="#CED6DB" width="16.895" height="4"/>
						</g>
						<g>
							
								<rect x="72.196" y="417.273" transform="matrix(0.4385 0.8987 -0.8987 0.4385 422.0947 162.9456)" fill="#CED6DB" width="16.894" height="4"/>
						</g>
					</g>
					<g>
						<g>
							
								<rect x="-145.164" y="-9.317" transform="matrix(0.4695 0.8829 -0.8829 0.4695 -78.9888 116.8305)" fill="#CED6DB" width="16.894" height="4"/>
						</g>
						<g>
							
								<rect x="79.64" y="413.478" transform="matrix(0.4696 0.8829 -0.8829 0.4696 413.5289 142.5864)" fill="#CED6DB" width="16.897" height="4"/>
						</g>
					</g>
					<g>
						<g>
							
								<rect x="-152.472" y="-5.266" transform="matrix(0.5001 0.866 -0.866 0.5001 -74.8264 123.0884)" fill="#CED6DB" width="16.893" height="4"/>
						</g>
						<g>
							
								<rect x="86.947" y="409.427" transform="matrix(0.5 0.866 -0.866 0.5 403.9886 123.0815)" fill="#CED6DB" width="16.897" height="4"/>
						</g>
					</g>
					<g>
						<g>
							
								<rect x="-159.637" y="-0.961" transform="matrix(0.53 0.848 -0.848 0.53 -70.1847 128.7004)" fill="#CED6DB" width="16.896" height="4"/>
						</g>
						<g>
							
								<rect x="94.11" y="405.123" transform="matrix(0.53 0.848 -0.848 0.53 393.4508 104.3844)" fill="#CED6DB" width="16.901" height="3.999"/>
						</g>
					</g>
					<g>
						<g>
							
								<rect x="-166.646" y="3.59" transform="matrix(0.5591 0.8291 -0.8291 0.5591 -65.116 133.6277)" fill="#CED6DB" width="16.894" height="4"/>
						</g>
						<g>
							
								<rect x="101.121" y="400.57" transform="matrix(0.5592 0.829 -0.829 0.5592 382.0247 86.6005)" fill="#CED6DB" width="16.897" height="4"/>
						</g>
					</g>
					<g>
						<g>
							
								<rect x="-173.491" y="8.383" transform="matrix(0.5879 0.8089 -0.8089 0.5879 -59.6132 137.7866)" fill="#CED6DB" width="16.893" height="4"/>
						</g>
						<g>
							
								<rect x="107.967" y="395.777" transform="matrix(0.5878 0.809 -0.809 0.5878 369.7976 69.7887)" fill="#CED6DB" width="16.897" height="4.001"/>
						</g>
					</g>
					<g>
						<g>
							
								<rect x="-180.166" y="13.411" transform="matrix(0.6157 0.788 -0.788 0.6157 -53.845 141.2312)" fill="#CED6DB" width="16.895" height="4"/>
						</g>
						<g>
							
								<rect x="114.64" y="390.749" transform="matrix(0.6157 0.788 -0.788 0.6157 356.7685 53.9332)" fill="#CED6DB" width="16.897" height="4"/>
						</g>
					</g>
					<g>
						<g>
							
								<rect x="-186.66" y="18.671" transform="matrix(0.6427 0.7661 -0.7661 0.6427 -47.8352 143.9133)" fill="#CED6DB" width="16.893" height="4"/>
						</g>
						<g>
							
								<rect x="121.134" y="385.487" transform="matrix(0.6429 0.7659 -0.7659 0.6429 343.0648 39.1139)" fill="#CED6DB" width="16.899" height="4"/>
						</g>
					</g>
					<g>
						<g>
							
								<rect x="-192.968" y="24.155" transform="matrix(0.6691 0.7431 -0.7431 0.6691 -41.616 145.7801)" fill="#CED6DB" width="16.894" height="4"/>
						</g>
						<g>
							
								<rect x="127.443" y="380.004" transform="matrix(0.6692 0.7431 -0.7431 0.6692 328.8083 25.3851)" fill="#CED6DB" width="16.898" height="4.001"/>
						</g>
					</g>
					<g>
						<g>
							
								<rect x="-199.08" y="29.853" transform="matrix(0.6949 0.7191 -0.7191 0.6949 -35.262 146.812)" fill="#CED6DB" width="16.894" height="4"/>
						</g>
						<g>
							
								<rect x="133.555" y="374.305" transform="matrix(0.6947 0.7193 -0.7193 0.6947 314.0045 12.7315)" fill="#CED6DB" width="16.896" height="4"/>
						</g>
					</g>
					<g>
						<g>
							
								<rect x="-204.99" y="35.764" transform="matrix(0.7193 0.6947 -0.6947 0.7193 -28.931 147.1318)" fill="#CED6DB" width="16.896" height="4"/>
						</g>
						<g>
							
								<rect x="139.468" y="368.396" transform="matrix(0.7194 0.6946 -0.6946 0.7194 298.7641 1.1864)" fill="#CED6DB" width="16.892" height="4"/>
						</g>
					</g>
					<g>
						<g>
							
								<rect x="-210.688" y="41.874" transform="matrix(0.7432 0.6691 -0.6691 0.7432 -22.5851 146.5875)" fill="#CED6DB" width="16.897" height="4"/>
						</g>
						<g>
							
								<rect x="145.165" y="362.285" transform="matrix(0.7431 0.6691 -0.6691 0.7431 283.2205 -9.2158)" fill="#CED6DB" width="16.897" height="4"/>
						</g>
					</g>
					<g>
						<g>
							
								<rect x="-216.172" y="48.181" transform="matrix(0.766 0.6428 -0.6428 0.766 -16.342 145.2619)" fill="#CED6DB" width="16.894" height="4"/>
						</g>
						<g>
							
								<rect x="150.645" y="355.977" transform="matrix(0.7662 0.6426 -0.6426 0.7662 267.2156 -18.5447)" fill="#CED6DB" width="16.9" height="4"/>
						</g>
					</g>
					<g>
						<g>
							
								<rect x="-221.432" y="54.677" transform="matrix(0.7879 0.6158 -0.6158 0.7879 -10.2665 143.1642)" fill="#CED6DB" width="16.895" height="4"/>
						</g>
						<g>
							
								<rect x="155.903" y="349.481" transform="matrix(0.7881 0.6156 -0.6156 0.7881 251.208 -26.6822)" fill="#CED6DB" width="16.901" height="4"/>
						</g>
					</g>
					<g>
						<g>
							
								<rect x="-226.462" y="61.351" transform="matrix(0.8091 0.5877 -0.5877 0.8091 -4.3884 140.2118)" fill="#CED6DB" width="16.897" height="4"/>
						</g>
						<g>
							
								<rect x="160.932" y="342.807" transform="matrix(0.8091 0.5876 -0.5876 0.8091 234.9359 -33.7226)" fill="#CED6DB" width="16.898" height="4"/>
						</g>
					</g>
					<g>
						<g>
							
								<rect x="-231.254" y="68.197" transform="matrix(0.8291 0.5591 -0.5591 0.8291 1.173 136.5555)" fill="#CED6DB" width="16.895" height="4"/>
						</g>
						<g>
							
								<rect x="165.728" y="335.96" transform="matrix(0.8291 0.559 -0.559 0.8291 218.6928 -39.6279)" fill="#CED6DB" width="16.896" height="4"/>
						</g>
					</g>
					<g>
						<g>
							
								<rect x="-235.805" y="75.205" transform="matrix(0.8481 0.5299 -0.5299 0.8481 6.3664 132.2066)" fill="#CED6DB" width="16.894" height="4"/>
						</g>
						<g>
							
								<rect x="170.28" y="328.954" transform="matrix(0.8482 0.5297 -0.5297 0.8482 202.4596 -44.4276)" fill="#CED6DB" width="16.897" height="4"/>
						</g>
					</g>
					<g>
						<g>
							
								<rect x="-240.109" y="82.37" transform="matrix(0.866 0.5 -0.5 0.866 11.1495 127.1274)" fill="#CED6DB" width="16.893" height="4.001"/>
						</g>
						<g>
							
								<rect x="174.583" y="321.79" transform="matrix(0.8661 0.4998 -0.4998 0.8661 186.3438 -48.1367)" fill="#CED6DB" width="16.896" height="4"/>
						</g>
					</g>
					<g>
						<g>
							
								<rect x="-244.161" y="89.679" transform="matrix(0.8829 0.4695 -0.4695 0.8829 15.4498 121.391)" fill="#CED6DB" width="16.893" height="4"/>
						</g>
						<g>
							
								<rect x="178.634" y="314.48" transform="matrix(0.8829 0.4695 -0.4695 0.8829 170.5075 -50.7864)" fill="#CED6DB" width="16.896" height="3.999"/>
						</g>
					</g>
					<g>
						<g>
							
								<rect x="-247.954" y="97.124" transform="matrix(0.8988 0.4383 -0.4383 0.8988 19.2154 114.9947)" fill="#CED6DB" width="16.892" height="4"/>
						</g>
						<g>
							
								<rect x="182.43" y="307.034" transform="matrix(0.8988 0.4383 -0.4383 0.8988 154.7527 -52.3952)" fill="#CED6DB" width="16.894" height="4"/>
						</g>
					</g>
					<g>
						<g>
							
								<rect x="-251.486" y="104.699" transform="matrix(0.9135 0.4067 -0.4067 0.9135 22.3864 108.0773)" fill="#CED6DB" width="16.893" height="4"/>
						</g>
						<g>
							
								<rect x="185.964" y="299.46" transform="matrix(0.9136 0.4066 -0.4066 0.9136 139.3584 -53.0017)" fill="#CED6DB" width="16.895" height="4"/>
						</g>
					</g>
					<g>
						<g>
							
								<rect x="-254.75" y="112.39" transform="matrix(0.9272 0.3746 -0.3746 0.9272 24.9162 100.5969)" fill="#CED6DB" width="16.89" height="4"/>
						</g>
						<g>
							
								<rect x="189.226" y="291.766" transform="matrix(0.9271 0.3747 -0.3747 0.9271 124.4734 -52.6662)" fill="#CED6DB" width="16.896" height="4"/>
						</g>
					</g>
					<g>
						<g>
							
								<rect x="-257.746" y="120.192" transform="matrix(0.9397 0.342 -0.342 0.9397 26.7557 92.6166)" fill="#CED6DB" width="16.892" height="4.001"/>
						</g>
						<g>
							
								<rect x="192.223" y="283.963" transform="matrix(0.9397 0.342 -0.342 0.9397 109.8834 -51.3811)" fill="#CED6DB" width="16.895" height="4.001"/>
						</g>
					</g>
					<g>
						<g>
							
								<rect x="-260.468" y="128.095" transform="matrix(0.9511 0.309 -0.309 0.9511 27.8675 84.2499)" fill="#CED6DB" width="16.894" height="4.001"/>
						</g>
						<g>
							
								<rect x="194.942" y="276.063" transform="matrix(0.9511 0.309 -0.309 0.9511 95.8682 -49.2375)" fill="#CED6DB" width="16.897" height="4.001"/>
						</g>
					</g>
					<g>
						<g>
							
								<rect x="-262.911" y="136.086" transform="matrix(0.9613 0.2757 -0.2757 0.9613 28.206 75.4973)" fill="#CED6DB" width="16.894" height="4.001"/>
						</g>
						<g>
							
								<rect x="197.385" y="268.071" transform="matrix(0.9613 0.2756 -0.2756 0.9613 82.4011 -46.2675)" fill="#CED6DB" width="16.895" height="4.001"/>
						</g>
					</g>
					<g>
						<g>
							
								<rect x="-265.072" y="144.159" transform="matrix(0.9703 0.2419 -0.2419 0.9703 27.7327 66.413)" fill="#CED6DB" width="16.892" height="4"/>
						</g>
						<g>
							
								<rect x="199.551" y="260" transform="matrix(0.9703 0.242 -0.242 0.9703 69.5799 -42.5448)" fill="#CED6DB" width="16.894" height="4"/>
						</g>
					</g>
					<g>
						<g>
							
								<rect x="-266.953" y="152.302" transform="matrix(0.9782 0.2079 -0.2079 0.9782 26.4295 57.1108)" fill="#CED6DB" width="16.892" height="3.999"/>
						</g>
						<g>
							
								<rect x="201.43" y="251.857" transform="matrix(0.9781 0.208 -0.208 0.9781 57.3866 -38.0993)" fill="#CED6DB" width="16.894" height="3.999"/>
						</g>
					</g>
					<g>
						<g>
							
								<rect x="-268.547" y="160.505" transform="matrix(0.9848 0.1736 -0.1736 0.9848 24.2623 47.6228)" fill="#CED6DB" width="16.892" height="4"/>
						</g>
						<g>
							
								<rect x="203.023" y="243.651" transform="matrix(0.9848 0.1736 -0.1736 0.9848 45.8532 -32.9799)" fill="#CED6DB" width="16.897" height="4"/>
						</g>
					</g>
					<g>
						<g>
							
								<rect x="-269.855" y="168.758" transform="matrix(0.9903 0.1391 -0.1391 0.9903 21.2103 38.0202)" fill="#CED6DB" width="16.892" height="4"/>
						</g>
						<g>
							
								<rect x="204.33" y="235.398" transform="matrix(0.9903 0.1392 -0.1392 0.9903 35.1104 -27.3028)" fill="#CED6DB" width="16.897" height="4"/>
						</g>
					</g>
					<g>
						<g>
							
								<rect x="-270.872" y="177.052" transform="matrix(0.9945 0.1044 -0.1044 0.9945 17.2613 28.3801)" fill="#CED6DB" width="16.89" height="4"/>
						</g>
						<g>
							
								<rect x="205.35" y="227.102" transform="matrix(0.9945 0.1046 -0.1046 0.9945 25.128 -21.0996)" fill="#CED6DB" width="16.895" height="4"/>
						</g>
					</g>
					<g>
						<g>
							
								<rect x="-271.601" y="185.379" transform="matrix(0.9976 0.0698 -0.0698 0.9976 12.4344 18.8208)" fill="#CED6DB" width="16.891" height="4"/>
						</g>
						<g>
							
								<rect x="206.079" y="218.779" transform="matrix(0.9976 0.0697 -0.0697 0.9976 15.9121 -14.4173)" fill="#CED6DB" width="16.895" height="4"/>
						</g>
					</g>
					<g>
						<g>
							
								<rect x="-272.038" y="193.723" transform="matrix(0.9994 0.0349 -0.0349 0.9994 6.6634 9.3088)" fill="#CED6DB" width="16.892" height="4"/>
						</g>
						<g>
							
								<rect x="206.514" y="210.432" transform="matrix(0.9994 0.0348 -0.0348 0.9994 7.5209 -7.3502)" fill="#CED6DB" width="16.898" height="4"/>
						</g>
					</g>
					<g>
						<g>
							<rect x="-272.183" y="202.08" fill="#CED6DB" width="16.89" height="4"/>
						</g>
						<g>
							<rect x="206.66" y="202.077" fill="#CED6DB" width="16.896" height="4"/>
						</g>
					</g>
					<g>
						<g>
							
								<rect x="-265.593" y="203.989" transform="matrix(0.0349 0.9994 -0.9994 0.0349 -42.0885 468.4539)" fill="#CED6DB" width="4" height="16.892"/>
						</g>
						<g>
							
								<rect x="212.961" y="187.27" transform="matrix(0.0349 0.9994 -0.9994 0.0349 403.0613 -25.9404)" fill="#CED6DB" width="4" height="16.9"/>
						</g>
					</g>
					<g>
						<g>
							
								<rect x="-265.156" y="212.335" transform="matrix(0.0698 0.9976 -0.9976 0.0698 -24.5389 467.8781)" fill="#CED6DB" width="4" height="16.891"/>
						</g>
						<g>
							
								<rect x="212.524" y="178.925" transform="matrix(0.0701 0.9975 -0.9975 0.0701 386.4049 -39.7529)" fill="#CED6DB" width="4" height="16.898"/>
						</g>
					</g>
					<g>
						<g>
							
								<rect x="-264.427" y="220.659" transform="matrix(0.1047 0.9945 -0.9945 0.1047 -7.0968 466.0925)" fill="#CED6DB" width="4.001" height="16.89"/>
						</g>
						<g>
							
								<rect x="211.795" y="170.6" transform="matrix(0.1047 0.9945 -0.9945 0.1047 369.4736 -52.3194)" fill="#CED6DB" width="4.001" height="16.898"/>
						</g>
					</g>
					<g>
						<g>
							
								<rect x="-263.409" y="228.954" transform="matrix(0.1394 0.9902 -0.9902 0.1394 10.1135 463.1628)" fill="#CED6DB" width="4" height="16.891"/>
						</g>
						<g>
							
								<rect x="210.777" y="162.305" transform="matrix(0.1392 0.9903 -0.9903 0.1392 352.2553 -63.7168)" fill="#CED6DB" width="4" height="16.9"/>
						</g>
					</g>
					<g>
						<g>
							
								<rect x="-262.101" y="237.208" transform="matrix(0.1738 0.9848 -0.9848 0.1738 27.0272 459.0921)" fill="#CED6DB" width="4" height="16.892"/>
						</g>
						<g>
							
								<rect x="209.468" y="154.052" transform="matrix(0.1738 0.9848 -0.9848 0.1738 334.7403 -73.9928)" fill="#CED6DB" width="4" height="16.896"/>
						</g>
					</g>
					<g>
						<g>
							
								<rect x="-260.507" y="245.412" transform="matrix(0.2083 0.9781 -0.9781 0.2083 43.6216 453.8281)" fill="#CED6DB" width="4" height="16.893"/>
						</g>
						<g>
							
								<rect x="207.876" y="145.849" transform="matrix(0.208 0.9781 -0.9781 0.208 317.1394 -83.0837)" fill="#CED6DB" width="4" height="16.898"/>
						</g>
					</g>
					<g>
						<g>
							
								<rect x="-258.628" y="253.555" transform="matrix(0.242 0.9703 -0.9703 0.242 59.6819 447.6072)" fill="#CED6DB" width="4" height="16.889"/>
						</g>
						<g>
							
								<rect x="205.996" y="137.706" transform="matrix(0.242 0.9703 -0.9703 0.242 299.4796 -91.0254)" fill="#CED6DB" width="4" height="16.897"/>
						</g>
					</g>
					<g>
						<g>
							
								<rect x="-256.466" y="261.628" transform="matrix(0.2756 0.9613 -0.9613 0.2756 75.2801 440.2498)" fill="#CED6DB" width="4.001" height="16.891"/>
						</g>
						<g>
							
								<rect x="203.83" y="129.633" transform="matrix(0.2756 0.9613 -0.9613 0.2756 281.843 -97.831)" fill="#CED6DB" width="4.001" height="16.899"/>
						</g>
					</g>
					<g>
						<g>
							
								<rect x="-254.023" y="269.62" transform="matrix(0.309 0.9511 -0.9511 0.309 90.3155 431.8197)" fill="#CED6DB" width="4.001" height="16.891"/>
						</g>
						<g>
							
								<rect x="201.387" y="121.642" transform="matrix(0.3091 0.951 -0.951 0.3091 264.2507 -103.5453)" fill="#CED6DB" width="4.001" height="16.896"/>
						</g>
					</g>
					<g>
						<g>
							
								<rect x="-251.301" y="277.52" transform="matrix(0.3421 0.9397 -0.9397 0.3421 104.6969 422.3951)" fill="#CED6DB" width="3.999" height="16.891"/>
						</g>
						<g>
							
								<rect x="198.667" y="113.742" transform="matrix(0.3421 0.9397 -0.9397 0.3421 246.8301 -108.1717)" fill="#CED6DB" width="3.999" height="16.896"/>
						</g>
					</g>
					<g>
						<g>
							
								<rect x="-248.306" y="285.324" transform="matrix(0.3747 0.9271 -0.9271 0.3747 118.3529 412.0522)" fill="#CED6DB" width="4" height="16.889"/>
						</g>
						<g>
							
								<rect x="195.671" y="105.939" transform="matrix(0.3747 0.9271 -0.9271 0.3747 229.6484 -111.745)" fill="#CED6DB" width="4" height="16.896"/>
						</g>
					</g>
					<g>
						<g>
							
								<rect x="-245.041" y="293.018" transform="matrix(0.4067 0.9135 -0.9135 0.4067 131.2129 400.8756)" fill="#CED6DB" width="4" height="16.89"/>
						</g>
						<g>
							
								<rect x="192.408" y="98.245" transform="matrix(0.4067 0.9135 -0.9135 0.4067 212.8049 -114.3032)" fill="#CED6DB" width="4" height="16.898"/>
						</g>
					</g>
					<g>
						<g>
							
								<rect x="-241.509" y="300.591" transform="matrix(0.4384 0.8988 -0.8988 0.4384 143.2476 388.8189)" fill="#CED6DB" width="4.001" height="16.89"/>
						</g>
						<g>
							
								<rect x="188.874" y="90.674" transform="matrix(0.4384 0.8988 -0.8988 0.4384 196.2829 -115.8873)" fill="#CED6DB" width="4.001" height="16.895"/>
						</g>
					</g>
					<g>
						<g>
							
								<rect x="-237.716" y="308.039" transform="matrix(0.4695 0.8829 -0.8829 0.4695 154.3893 375.9959)" fill="#CED6DB" width="4" height="16.889"/>
						</g>
						<g>
							
								<rect x="185.081" y="83.224" transform="matrix(0.4695 0.8829 -0.8829 0.4695 180.176 -116.5466)" fill="#CED6DB" width="4" height="16.899"/>
						</g>
					</g>
					<g>
						<g>
							
								<rect x="-233.664" y="315.347" transform="matrix(0.5001 0.866 -0.866 0.5001 164.5858 362.4637)" fill="#CED6DB" width="3.999" height="16.891"/>
						</g>
						<g>
							
								<rect x="181.028" y="75.916" transform="matrix(0.4999 0.8661 -0.8661 0.4999 164.5952 -116.326)" fill="#CED6DB" width="4.001" height="16.899"/>
						</g>
					</g>
					<g>
						<g>
							
								<rect x="-229.361" y="322.511" transform="matrix(0.53 0.848 -0.848 0.53 173.7901 348.3604)" fill="#CED6DB" width="4.001" height="16.889"/>
						</g>
						<g>
							
								<rect x="176.725" y="68.752" transform="matrix(0.5299 0.848 -0.848 0.5299 149.4793 -115.2758)" fill="#CED6DB" width="4.001" height="16.9"/>
						</g>
					</g>
					<g>
						<g>
							
								<rect x="-224.81" y="329.52" transform="matrix(0.5593 0.829 -0.829 0.5593 181.9701 333.6649)" fill="#CED6DB" width="4.001" height="16.891"/>
						</g>
						<g>
							
								<rect x="172.173" y="61.744" transform="matrix(0.5593 0.829 -0.829 0.5593 134.956 -113.4514)" fill="#CED6DB" width="4.001" height="16.899"/>
						</g>
					</g>
					<g>
						<g>
							
								<rect x="-220.015" y="336.364" transform="matrix(0.5878 0.809 -0.809 0.5878 189.0883 318.4987)" fill="#CED6DB" width="4" height="16.895"/>
						</g>
						<g>
							
								<rect x="167.378" y="54.897" transform="matrix(0.5878 0.809 -0.809 0.5878 121.059 -110.9145)" fill="#CED6DB" width="4" height="16.9"/>
						</g>
					</g>
					<g>
						<g>
							
								<rect x="-214.986" y="343.039" transform="matrix(0.6157 0.788 -0.788 0.6157 195.1144 302.9196)" fill="#CED6DB" width="4" height="16.892"/>
						</g>
						<g>
							
								<rect x="162.349" y="48.223" transform="matrix(0.6156 0.788 -0.788 0.6156 107.8281 -107.7287)" fill="#CED6DB" width="4" height="16.899"/>
						</g>
					</g>
					<g>
						<g>
							
								<rect x="-209.726" y="349.534" transform="matrix(0.6428 0.766 -0.766 0.6428 200.0264 287.005)" fill="#CED6DB" width="4" height="16.891"/>
						</g>
						<g>
							
								<rect x="157.089" y="41.728" transform="matrix(0.6428 0.766 -0.766 0.6428 95.2682 -103.946)" fill="#CED6DB" width="4" height="16.899"/>
						</g>
					</g>
					<g>
						<g>
							
								<rect x="-204.244" y="355.842" transform="matrix(0.6692 0.7431 -0.7431 0.6692 203.799 270.8149)" fill="#CED6DB" width="4" height="16.89"/>
						</g>
						<g>
							
								<rect x="151.607" y="35.423" transform="matrix(0.6692 0.7431 -0.7431 0.6692 83.4227 -99.6341)" fill="#CED6DB" width="4" height="16.898"/>
						</g>
					</g>
					<g>
						<g>
							
								<rect x="-198.544" y="361.953" transform="matrix(0.6948 0.7192 -0.7192 0.6948 206.4081 254.4067)" fill="#CED6DB" width="4" height="16.891"/>
						</g>
						<g>
							
								<rect x="145.907" y="29.311" transform="matrix(0.6947 0.7193 -0.7193 0.6947 72.321 -94.8647)" fill="#CED6DB" width="3.999" height="16.896"/>
						</g>
					</g>
					<g>
						<g>
							
								<rect x="-192.635" y="367.862" transform="matrix(0.7192 0.6948 -0.6948 0.7192 207.9291 238.1206)" fill="#CED6DB" width="4" height="16.892"/>
						</g>
						<g>
							
								<rect x="139.998" y="23.401" transform="matrix(0.7196 0.6944 -0.6944 0.7196 61.9371 -89.6742)" fill="#CED6DB" width="3.999" height="16.897"/>
						</g>
					</g>
					<g>
						<g>
							
								<rect x="-186.522" y="373.563" transform="matrix(0.7432 0.669 -0.669 0.7432 208.1935 221.5297)" fill="#CED6DB" width="4" height="16.892"/>
						</g>
						<g>
							
								<rect x="133.886" y="17.701" transform="matrix(0.7434 0.6689 -0.6689 0.7434 52.3648 -84.1818)" fill="#CED6DB" width="4" height="16.896"/>
						</g>
					</g>
					<g>
						<g>
							
								<rect x="-180.214" y="379.047" transform="matrix(0.7662 0.6426 -0.6426 0.7662 207.3448 205.1331)" fill="#CED6DB" width="4" height="16.891"/>
						</g>
						<g>
							
								<rect x="127.579" y="12.219" transform="matrix(0.7662 0.6426 -0.6426 0.7662 43.5795 -78.4377)" fill="#CED6DB" width="4" height="16.899"/>
						</g>
					</g>
					<g>
						<g>
							
								<rect x="-173.72" y="384.306" transform="matrix(0.788 0.6157 -0.6157 0.788 205.3976 188.977)" fill="#CED6DB" width="4" height="16.893"/>
						</g>
						<g>
							
								<rect x="121.082" y="6.96" transform="matrix(0.788 0.6157 -0.6157 0.788 35.5802 -72.5114)" fill="#CED6DB" width="4" height="16.899"/>
						</g>
					</g>
					<g>
						<g>
							
								<rect x="-167.046" y="389.335" transform="matrix(0.809 0.5878 -0.5878 0.809 202.3016 173.0025)" fill="#CED6DB" width="4" height="16.89"/>
						</g>
						<g>
							
								<rect x="114.408" y="1.93" transform="matrix(0.809 0.5878 -0.5878 0.809 28.3356 -66.4445)" fill="#CED6DB" width="4" height="16.898"/>
						</g>
					</g>
					<g>
						<g>
							
								<rect x="-160.2" y="394.127" transform="matrix(0.8291 0.5591 -0.5591 0.8291 198.0373 157.2421)" fill="#CED6DB" width="4" height="16.892"/>
						</g>
						<g>
							
								<rect x="107.562" y="-2.862" transform="matrix(0.8291 0.5591 -0.5591 0.8291 21.8467 -60.2995)" fill="#CED6DB" width="4" height="16.898"/>
						</g>
					</g>
					<g>
						<g>
							
								<rect x="-153.192" y="398.68" transform="matrix(0.8481 0.5298 -0.5298 0.8481 192.7232 141.9224)" fill="#CED6DB" width="4" height="16.892"/>
						</g>
						<g>
							
								<rect x="100.555" y="-7.413" transform="matrix(0.8481 0.5298 -0.5298 0.8481 16.1227 -54.173)" fill="#CED6DB" width="4" height="16.898"/>
						</g>
					</g>
					<g>
						<g>
							
								<rect x="-146.027" y="402.983" transform="matrix(0.866 0.5 -0.5 0.866 186.4256 127.1429)" fill="#CED6DB" width="4" height="16.891"/>
						</g>
						<g>
							
								<rect x="93.391" y="-11.718" transform="matrix(0.8661 0.4999 -0.4999 0.8661 11.1409 -48.1266)" fill="#CED6DB" width="4.001" height="16.896"/>
						</g>
					</g>
					<g>
						<g>
							
								<rect x="-138.719" y="407.035" transform="matrix(0.8831 0.4693 -0.4693 0.8831 178.9792 112.7416)" fill="#CED6DB" width="4" height="16.891"/>
						</g>
						<g>
							
								<rect x="86.082" y="-15.769" transform="matrix(0.8831 0.4692 -0.4692 0.8831 6.8639 -42.1864)" fill="#CED6DB" width="4" height="16.897"/>
						</g>
					</g>
					<g>
						<g>
							
								<rect x="-131.273" y="410.832" transform="matrix(0.8987 0.4385 -0.4385 0.8987 170.7616 99.1465)" fill="#CED6DB" width="4" height="16.887"/>
						</g>
						<g>
							
								<rect x="78.635" y="-19.562" transform="matrix(0.8988 0.4384 -0.4384 0.8988 3.2894 -36.4749)" fill="#CED6DB" width="4.001" height="16.897"/>
						</g>
					</g>
					<g>
						<g>
							
								<rect x="-123.698" y="414.362" transform="matrix(0.9136 0.4067 -0.4067 0.9136 161.4424 86.0464)" fill="#CED6DB" width="4" height="16.891"/>
						</g>
						<g>
							
								<rect x="71.063" y="-23.094" transform="matrix(0.9136 0.4067 -0.4067 0.9136 0.3594 -30.9819)" fill="#CED6DB" width="4" height="16.897"/>
						</g>
					</g>
					<g>
						<g>
							
								<rect x="-116.005" y="417.628" transform="matrix(0.9272 0.3745 -0.3745 0.9272 151.2648 73.6994)" fill="#CED6DB" width="4" height="16.891"/>
						</g>
						<g>
							
								<rect x="63.369" y="-26.361" transform="matrix(0.9272 0.3745 -0.3745 0.9272 -1.9507 -25.7851)" fill="#CED6DB" width="4" height="16.899"/>
						</g>
					</g>
					<g>
						<g>
							
								<rect x="-108.203" y="420.623" transform="matrix(0.9398 0.3418 -0.3418 0.9398 140.2715 62.1503)" fill="#CED6DB" width="4" height="16.89"/>
						</g>
						<g>
							
								<rect x="55.567" y="-29.355" transform="matrix(0.9398 0.3418 -0.3418 0.9398 -3.6785 -20.9371)" fill="#CED6DB" width="4" height="16.899"/>
						</g>
					</g>
					<g>
						<g>
							
								<rect x="-100.302" y="423.343" transform="matrix(0.951 0.3091 -0.3091 0.951 128.6347 51.5197)" fill="#CED6DB" width="4.001" height="16.89"/>
						</g>
						<g>
							
								<rect x="47.666" y="-32.074" transform="matrix(0.9512 0.3086 -0.3086 0.9512 -4.8671 -16.4803)" fill="#CED6DB" width="4" height="16.896"/>
						</g>
					</g>
					<g>
						<g>
							
								<rect x="-92.311" y="425.788" transform="matrix(0.9613 0.2754 -0.2754 0.9613 116.085 41.658)" fill="#CED6DB" width="4" height="16.89"/>
						</g>
						<g>
							
								<rect x="39.673" y="-34.52" transform="matrix(0.9613 0.2754 -0.2754 0.9613 -5.5685 -12.4856)" fill="#CED6DB" width="3.999" height="16.899"/>
						</g>
					</g>
					<g>
						<g>
							
								<rect x="-84.238" y="427.949" transform="matrix(0.9703 0.2417 -0.2417 0.9703 103.0506 32.8213)" fill="#CED6DB" width="4" height="16.892"/>
						</g>
						<g>
							
								<rect x="31.601" y="-36.681" transform="matrix(0.9703 0.2417 -0.2417 0.9703 -5.8279 -8.9594)" fill="#CED6DB" width="4" height="16.899"/>
						</g>
					</g>
					<g>
						<g>
							
								<rect x="-76.095" y="429.828" transform="matrix(0.9781 0.208 -0.208 0.9781 89.528 24.9924)" fill="#CED6DB" width="4.001" height="16.892"/>
						</g>
						<g>
							
								<rect x="23.456" y="-38.56" transform="matrix(0.9781 0.208 -0.208 0.9781 -5.7056 -5.9526)" fill="#CED6DB" width="4.001" height="16.898"/>
						</g>
					</g>
					<g>
						<g>
							
								<rect x="-67.892" y="431.425" transform="matrix(0.9849 0.1733 -0.1733 0.9849 75.2423 18.0781)" fill="#CED6DB" width="4" height="16.889"/>
						</g>
						<g>
							
								<rect x="15.253" y="-40.155" transform="matrix(0.9849 0.1733 -0.1733 0.9849 -5.2345 -3.4704)" fill="#CED6DB" width="4" height="16.897"/>
						</g>
					</g>
					<g>
						<g>
							
								<rect x="-59.637" y="432.733" transform="matrix(0.9903 0.1392 -0.1392 0.9903 60.8424 12.316)" fill="#CED6DB" width="4" height="16.888"/>
						</g>
						<g>
							
								<rect x="7.001" y="-41.461" transform="matrix(0.9903 0.1392 -0.1392 0.9903 -4.5064 -1.5737)" fill="#CED6DB" width="4" height="16.896"/>
						</g>
					</g>
					<g>
						<g>
							
								<rect x="-51.342" y="433.75" transform="matrix(0.9945 0.1045 -0.1045 0.9945 45.9347 7.5763)" fill="#CED6DB" width="4" height="16.891"/>
						</g>
						<g>
							
								<rect x="-1.294" y="-42.48" transform="matrix(0.9945 0.1045 -0.1045 0.9945 -3.5522 -0.26)" fill="#CED6DB" width="4" height="16.896"/>
						</g>
					</g>
					<g>
						<g>
							
								<rect x="-43.017" y="434.478" transform="matrix(0.9976 0.0698 -0.0698 0.9976 30.8273 3.9451)" fill="#CED6DB" width="4" height="16.891"/>
						</g>
						<g>
							
								<rect x="-9.62" y="-43.208" transform="matrix(0.9976 0.0693 -0.0693 0.9976 -2.4281 0.4447)" fill="#CED6DB" width="4" height="16.898"/>
						</g>
					</g>
					<g>
						<g>
							
								<rect x="-34.672" y="434.915" transform="matrix(0.9994 0.0347 -0.0347 0.9994 15.3519 1.3993)" fill="#CED6DB" width="4.001" height="16.891"/>
						</g>
						<g>
							
								<rect x="-17.967" y="-43.647" transform="matrix(0.9994 0.0347 -0.0347 0.9994 -1.23 0.5324)" fill="#CED6DB" width="4" height="16.899"/>
						</g>
					</g>
				</g>
			</g>
			<g>
				<g>
					<polygon fill="#B0B5B7" points="684.627,295.754 678.373,295.754 668.938,285.965 675.191,285.965 					"/>
					<polygon fill="#B0B5B7" points="696.41,295.754 690.158,295.754 680.723,285.965 686.976,285.965 					"/>
					<polygon fill="#B0B5B7" points="708.195,295.754 701.943,295.754 692.508,285.965 698.76,285.965 					"/>
					<polygon fill="#B0B5B7" points="719.98,295.754 713.727,295.754 704.291,285.965 710.545,285.965 					"/>
					<polygon fill="#B0B5B7" points="731.764,295.754 725.512,295.754 716.076,285.965 722.328,285.965 					"/>
					<polygon fill="#B0B5B7" points="743.549,295.754 737.297,295.754 727.861,285.965 734.113,285.965 					"/>
					<polygon fill="#B0B5B7" points="755.334,295.754 749.08,295.754 739.646,285.965 745.896,285.965 					"/>
					<polygon fill="#B0B5B7" points="767.117,295.754 760.865,295.754 751.43,285.965 757.682,285.965 					"/>
				</g>
				<g>
					<g>
						<g>
							<g>
								<g>
									<path fill="#CED6DB" d="M768.328,195.218H551.007L494.788,139h-124.5l-59.5-59.5h-83.293c-0.276,0-0.5-0.224-0.5-0.5
										s0.224-0.5,0.5-0.5h83.707l59.5,59.5h124.5l56.219,56.218h216.907c0.276,0,0.5,0.224,0.5,0.5
										C768.828,194.994,768.604,195.218,768.328,195.218z"/>
								</g>
								<g>
									<path fill="#B0B5B7" d="M325.87,142.21H78.329c-0.276,0-0.5-0.224-0.5-0.5c0-0.276,0.224-0.5,0.5-0.5h247.127l70.711-70.71
										h91.136l52.566,52.566h54.919L729.925-12.07c0.195-0.195,0.512-0.195,0.707,0c0.195,0.195,0.195,0.512,0,0.707
										l-135.43,135.429h-55.747L486.889,71.5h-90.308L325.87,142.21z"/>
								</g>
								<g>
									<path fill="#B0B5B7" d="M768.328,302.06H579.281l-143.2-143.2h-94.645l-60.355-60.356H107.995c-0.552,0-1-0.448-1-1
										c0-0.552,0.448-1,1-1h173.914l60.355,60.356h94.645l143.2,143.2h188.219c0.553,0,1,0.447,1,1
										C769.328,301.612,768.881,302.06,768.328,302.06z"/>
								</g>
								<g>
									<path fill="#B0B5B7" d="M579.775,273.172H420.788L306.616,159H145.995c-0.276,0-0.5-0.224-0.5-0.5
										c0-0.276,0.224-0.5,0.5-0.5H307.03l114.172,114.172h158.159l110.981-110.98h102.365c0.276,0,0.5,0.224,0.5,0.5
										c0,0.276-0.224,0.5-0.5,0.5H690.756L579.775,273.172z"/>
								</g>
								<g>
									<path fill="#CED6DB" d="M242.536,120.834h-60.04c-0.276,0-0.5-0.224-0.5-0.5c0-0.276,0.224-0.5,0.5-0.5h59.626l63-63
										h106.747l43.5,43.5h104.086L674.392-14.603c0.195-0.195,0.512-0.195,0.707,0c0.195,0.195,0.195,0.512,0,0.707
										l-115.229,115.23H454.955l-43.5-43.5H305.536L242.536,120.834z"/>
								</g>
								<g>
									<path fill="#B0B5B7" d="M607.202,330.475h-73.387L412.163,208.822H258.975l-36.187-36.187H72.995
										c-0.276,0-0.5-0.224-0.5-0.5c0-0.276,0.224-0.5,0.5-0.5h150.207l36.187,36.187h153.188l121.652,121.652h72.559
										l75.987-75.987h85.553c0.276,0,0.5,0.224,0.5,0.5s-0.224,0.5-0.5,0.5h-85.139L607.202,330.475z"/>
								</g>
								<g>
									<path fill="#B0B5B7" d="M228.743,62h-78.747c-0.552,0-1-0.448-1-1s0.448-1,1-1h77.919l44.666-44.667h170.667l33.665-33.666
										c0.391-0.391,1.023-0.391,1.414,0c0.391,0.391,0.391,1.023,0,1.414l-34.251,34.251H273.409L228.743,62z"/>
								</g>
							</g>
							<g>
								<path fill="#B0B5B7" d="M-14.338,236.837c-0.256,0-0.512-0.098-0.707-0.293c-0.391-0.391-0.391-1.023,0-1.414l54.095-54.095
									h170.781l47.079,47.078h85.253c0.552,0,1,0.448,1,1c0,0.552-0.448,1-1,1h-86.082l-47.079-47.078H39.878l-53.509,53.509
									C-13.826,236.74-14.082,236.837-14.338,236.837z"/>
							</g>
							<g>
								<path fill="#B0B5B7" d="M197.495,79.5h-73.707L83.205,38.917h-97.543c-0.276,0-0.5-0.224-0.5-0.5s0.224-0.5,0.5-0.5h97.957
									L124.202,78.5h73.293c0.276,0,0.5,0.224,0.5,0.5S197.771,79.5,197.495,79.5z"/>
							</g>
							<g>
								<path fill="#B0B5B7" d="M149.996,120.834H95.788L42.871,67.917h-65.876c-0.276,0-0.5-0.224-0.5-0.5s0.224-0.5,0.5-0.5h66.29
									l52.917,52.917h53.794c0.276,0,0.5,0.224,0.5,0.5C150.496,120.61,150.272,120.834,149.996,120.834z"/>
							</g>
							<g>
								<path fill="#B0B5B7" d="M78.882,142.12c-0.128,0-0.256-0.049-0.354-0.146L32.196,95.641h-55.201c-0.276,0-0.5-0.224-0.5-0.5
									c0-0.276,0.224-0.5,0.5-0.5H32.61l46.625,46.625c0.195,0.195,0.195,0.512,0,0.707
									C79.138,142.071,79.01,142.12,78.882,142.12z"/>
							</g>
							<g>
								<path fill="#B0B5B7" d="M632.19,159.5h-69.945c-0.553,0-1-0.448-1-1s0.447-1,1-1h69.117l59.025-59.026h30.713
									c0.553,0,1,0.448,1,1c0,0.552-0.447,1-1,1h-29.885L632.19,159.5z"/>
							</g>
							<g>
								<g>
									<path fill="#CED6DB" d="M606.995,337.058c-3.905,0-7.083-3.178-7.083-7.083s3.178-7.083,7.083-7.083
										c3.905,0,7.083,3.178,7.083,7.083S610.9,337.058,606.995,337.058z M606.995,323.892c-3.355,0-6.083,2.728-6.083,6.083
										c0,3.354,2.728,6.083,6.083,6.083c3.354,0,6.083-2.728,6.083-6.083C613.078,326.62,610.35,323.892,606.995,323.892z"/>
								</g>
								<g>
									<circle fill="#CED6DB" cx="606.995" cy="329.975" r="4.612"/>
								</g>
							</g>
							<g>
								<g>
									<path fill="#CED6DB" d="M551.038,201.801c-3.905,0-7.083-3.177-7.083-7.083c0-3.906,3.178-7.083,7.083-7.083
										c3.905,0,7.083,3.177,7.083,7.083C558.121,198.624,554.943,201.801,551.038,201.801z M551.038,188.635
										c-3.354,0-6.083,2.729-6.083,6.083c0,3.354,2.729,6.083,6.083,6.083s6.083-2.729,6.083-6.083
										C557.121,191.364,554.393,188.635,551.038,188.635z"/>
								</g>
								<g>
									<circle fill="#CED6DB" cx="551.038" cy="194.718" r="4.612"/>
								</g>
							</g>
							<g>
								<g>
									<path fill="#CED6DB" d="M555.079,165.583c-3.905,0-7.083-3.177-7.083-7.083s3.178-7.083,7.083-7.083
										c3.905,0,7.083,3.177,7.083,7.083S558.984,165.583,555.079,165.583z M555.079,152.417c-3.354,0-6.083,2.729-6.083,6.083
										s2.729,6.083,6.083,6.083s6.083-2.729,6.083-6.083S558.434,152.417,555.079,152.417z"/>
								</g>
								<g>
									<circle fill="#CED6DB" cx="555.079" cy="158.5" r="4.612"/>
								</g>
								<g>
									<circle fill="#CED6DB" cx="476.651" cy="158.5" r="4.612"/>
								</g>
								<g>
									<circle fill="#CED6DB" cx="719.317" cy="231.809" r="4.612"/>
								</g>
							</g>
							<g>
								<g>
									<path fill="#CED6DB" d="M425.079,78.663c-3.905,0-7.083-3.177-7.083-7.083c0-3.906,3.178-7.083,7.083-7.083
										s7.083,3.177,7.083,7.083C432.162,75.486,428.984,78.663,425.079,78.663z M425.079,65.497
										c-3.354,0-6.083,2.729-6.083,6.083c0,3.354,2.729,6.083,6.083,6.083s6.083-2.729,6.083-6.083
										C431.162,68.226,428.434,65.497,425.079,65.497z"/>
								</g>
								<g>
									<circle fill="#CED6DB" cx="425.079" cy="71.58" r="4.612"/>
								</g>
							</g>
							<g>
								<g>
									<path fill="#B0B5B7" d="M349.329,236.337c-3.906,0-7.083-3.177-7.083-7.083c0-3.906,3.177-7.083,7.083-7.083
										c3.906,0,7.083,3.177,7.083,7.083C356.412,233.16,353.235,236.337,349.329,236.337z M349.329,223.171
										c-3.354,0-6.083,2.729-6.083,6.083c0,3.354,2.729,6.083,6.083,6.083s6.083-2.729,6.083-6.083
										C355.412,225.9,352.683,223.171,349.329,223.171z"/>
								</g>
								<g>
									<circle fill="#B0B5B7" cx="349.329" cy="229.254" r="4.612"/>
								</g>
							</g>
							<g>
								<g>
									<path fill="#CED6DB" d="M220.912,86.083c-3.906,0-7.083-3.177-7.083-7.083s3.177-7.083,7.083-7.083
										s7.083,3.177,7.083,7.083S224.818,86.083,220.912,86.083z M220.912,72.917c-3.354,0-6.083,2.729-6.083,6.083
										s2.729,6.083,6.083,6.083s6.083-2.729,6.083-6.083S224.266,72.917,220.912,72.917z"/>
								</g>
								<g>
									<circle fill="#CED6DB" cx="220.912" cy="79" r="4.612"/>
								</g>
							</g>
							<g>
								<g>
									<path fill="#B0B5B7" d="M144.839,65.975c-2.743,0-4.975-2.232-4.975-4.975s2.232-4.975,4.975-4.975
										c2.743,0,4.975,2.232,4.975,4.975S147.583,65.975,144.839,65.975z M144.839,57.025c-2.192,0-3.975,1.783-3.975,3.975
										s1.783,3.975,3.975,3.975c2.192,0,3.975-1.783,3.975-3.975S147.031,57.025,144.839,57.025z"/>
								</g>
								<g>
									<circle fill="#B0B5B7" cx="144.839" cy="61" r="3.135"/>
								</g>
							</g>
							<g>
								<g>
									<path fill="#B0B5B7" d="M43.078,72.392c-2.743,0-4.975-2.232-4.975-4.975s2.232-4.975,4.975-4.975
										c2.743,0,4.975,2.232,4.975,4.975S45.821,72.392,43.078,72.392z M43.078,63.442c-2.192,0-3.975,1.783-3.975,3.975
										s1.783,3.975,3.975,3.975c2.192,0,3.975-1.783,3.975-3.975S45.27,63.442,43.078,63.442z"/>
								</g>
								<g>
									<circle fill="#B0B5B7" cx="43.078" cy="67.417" r="3.135"/>
								</g>
							</g>
							<g>
								<g>
									<path fill="#B0B5B7" d="M141.24,163.475c-2.743,0-4.975-2.232-4.975-4.975s2.232-4.975,4.975-4.975
										c2.743,0,4.975,2.232,4.975,4.975S143.983,163.475,141.24,163.475z M141.24,154.525c-2.192,0-3.975,1.783-3.975,3.975
										s1.783,3.975,3.975,3.975s3.975-1.783,3.975-3.975S143.432,154.525,141.24,154.525z"/>
								</g>
								<g>
									<circle fill="#B0B5B7" cx="141.24" cy="158.5" r="3.135"/>
								</g>
							</g>
							<g>
								<g>
									<path fill="#B0B5B7" d="M68.52,177.111c-2.743,0-4.975-2.232-4.975-4.975c0-2.743,2.232-4.975,4.975-4.975
										c2.743,0,4.975,2.232,4.975,4.975C73.495,174.879,71.263,177.111,68.52,177.111z M68.52,168.161
										c-2.192,0-3.975,1.783-3.975,3.975c0,2.192,1.783,3.975,3.975,3.975c2.192,0,3.975-1.783,3.975-3.975
										C72.495,169.944,70.712,168.161,68.52,168.161z"/>
								</g>
								<g>
									<circle fill="#B0B5B7" cx="68.52" cy="172.136" r="3.135"/>
								</g>
							</g>
							<g>
								<circle fill="#CED6DB" cx="283.662" cy="79" r="5.583"/>
							</g>
							<g>
								<circle fill="#CED6DB" cx="716.038" cy="99.608" r="5.583"/>
							</g>
							<g>
								<circle fill="#CED6DB" cx="657.401" cy="194.718" r="5.583"/>
							</g>
							<g>
								<circle fill="#CED6DB" cx="635.651" cy="301.06" r="3.656"/>
							</g>
							<g>
								<circle fill="#CED6DB" cx="476.651" cy="272.673" r="3.656"/>
							</g>
							<g>
								<circle fill="#CED6DB" cx="517.038" cy="100.942" r="5.583"/>
							</g>
							<g>
								<circle fill="#CED6DB" cx="576.435" cy="102.031" r="3.936"/>
							</g>
							<g>
								<circle fill="#B0B5B7" cx="590.268" cy="109.046" r="4.165"/>
							</g>
							<g>
								<circle fill="#B0B5B7" cx="356.995" cy="208.374" r="7.333"/>
							</g>
							<g>
								<circle fill="#CED6DB" cx="551.134" cy="272.672" r="7.333"/>
							</g>
							<g>
								<circle fill="#CED6DB" cx="325.578" cy="141.71" r="3.417"/>
							</g>
							<g>
								<circle fill="#B0B5B7" cx="209.12" cy="182.036" r="3.417"/>
							</g>
							<g>
								<g>
									<path fill="#CED6DB" d="M349.692,125.295c-4.182,0-7.584-3.402-7.584-7.584c0-4.182,3.402-7.584,7.584-7.584
										c4.182,0,7.584,3.402,7.584,7.584C357.277,121.893,353.875,125.295,349.692,125.295z M349.692,111.126
										c-3.631,0-6.584,2.954-6.584,6.584c0,3.631,2.954,6.584,6.584,6.584c3.631,0,6.584-2.954,6.584-6.584
										C356.277,114.08,353.323,111.126,349.692,111.126z"/>
								</g>
								<g>
									<circle fill="#CED6DB" cx="349.692" cy="117.71" r="4.897"/>
								</g>
							</g>
							<g>
								<circle fill="#B0B5B7" cx="182.495" cy="120.333" r="5.583"/>
							</g>
							<g>
								<circle fill="#B0B5B7" cx="149.996" cy="120.333" r="5.583"/>
							</g>
							<g>
								<circle fill="#B0B5B7" cx="78.882" cy="141.62" r="5.583"/>
							</g>
							<g>
								<circle fill="#B0B5B7" cx="31.693" cy="95.141" r="5.583"/>
							</g>
							<g>
								<circle fill="#CED6DB" cx="265.245" cy="97.504" r="2.167"/>
							</g>
							<g>
								<circle fill="#CED6DB" cx="310.912" cy="79" r="3.833"/>
							</g>
							<g>
								<circle fill="#B0B5B7" cx="200.412" cy="79" r="3.833"/>
							</g>
							<g>
								<circle fill="#B0B5B7" cx="107.995" cy="97.504" r="3.833"/>
							</g>
						</g>
						<g>
							<g>
								<path fill="#CED6DB" d="M528.329,38.917h-314c-0.276,0-0.5-0.224-0.5-0.5s0.224-0.5,0.5-0.5h314c0.276,0,0.5,0.224,0.5,0.5
									S528.605,38.917,528.329,38.917z"/>
							</g>
							<g>
								<circle fill="#CED6DB" cx="211.496" cy="38.417" r="3.833"/>
							</g>
							<g>
								<circle fill="#CED6DB" cx="528.329" cy="38.417" r="3.834"/>
							</g>
						</g>
						<g>
							<path fill="#CED6DB" d="M577.251,101.442c-0.128,0-0.256-0.049-0.354-0.146c-0.195-0.195-0.195-0.512,0-0.707L693.385-15.899
								c0.195-0.195,0.512-0.195,0.707,0c0.195,0.195,0.195,0.512,0,0.707L577.604,101.295
								C577.507,101.393,577.379,101.442,577.251,101.442z"/>
						</g>
						<g>
							<path fill="#B0B5B7" d="M591.735,107.927c-0.128,0-0.256-0.049-0.354-0.146c-0.195-0.195-0.195-0.512,0-0.707L707.869-9.415
								c0.195-0.195,0.512-0.195,0.707,0c0.195,0.195,0.195,0.512,0,0.707L592.089,107.78
								C591.991,107.878,591.863,107.927,591.735,107.927z"/>
						</g>
						<g>
							<path fill="#CED6DB" d="M717.527,232.309H549.753l-73.455-73.456c-0.195-0.195-0.195-0.512,0-0.707
								c0.195-0.195,0.512-0.195,0.707,0l73.162,73.163h167.36c0.276,0,0.5,0.224,0.5,0.5
								C718.027,232.085,717.804,232.309,717.527,232.309z"/>
						</g>
					</g>
					<g>
						<g>
							<polygon fill="#CED6DB" points="359.585,172.9 353.332,172.9 343.897,163.112 350.149,163.112 							"/>
						</g>
						<g>
							<polygon fill="#CED6DB" points="371.369,172.9 365.117,172.9 355.681,163.112 361.934,163.112 							"/>
						</g>
						<g>
							<polygon fill="#CED6DB" points="383.154,172.9 376.901,172.9 367.466,163.112 373.718,163.112 							"/>
						</g>
						<g>
							<polygon fill="#CED6DB" points="394.939,172.9 388.685,172.9 379.25,163.112 385.503,163.112 							"/>
						</g>
						<g>
							<polygon fill="#CED6DB" points="406.723,172.9 400.471,172.9 391.034,163.112 397.287,163.112 							"/>
						</g>
						<g>
							<polygon fill="#CED6DB" points="418.508,172.9 412.255,172.9 402.819,163.112 409.071,163.112 							"/>
						</g>
						<g>
							<polygon fill="#CED6DB" points="430.292,172.9 424.039,172.9 414.604,163.112 420.855,163.112 							"/>
						</g>
						<g>
							<polygon fill="#CED6DB" points="442.076,172.9 435.823,172.9 426.389,163.112 432.641,163.112 							"/>
						</g>
					</g>
					<g>
						<g>
							<polygon fill="#CED6DB" points="245.131,262.98 233.534,262.98 216.036,244.827 227.631,244.827 							"/>
						</g>
						<g>
							<polygon fill="#CED6DB" points="266.986,262.98 255.39,262.98 237.891,244.827 249.487,244.827 							"/>
						</g>
						<g>
							<polygon fill="#CED6DB" points="288.843,262.98 277.246,262.98 259.747,244.827 271.343,244.827 							"/>
						</g>
						<g>
							<polygon fill="#CED6DB" points="310.698,262.98 299.102,262.98 281.602,244.827 293.199,244.827 							"/>
						</g>
						<g>
							<polygon fill="#CED6DB" points="332.553,262.98 320.958,262.98 303.457,244.827 315.054,244.827 							"/>
						</g>
						<g>
							<polygon fill="#CED6DB" points="354.41,262.98 342.814,262.98 325.314,244.827 336.909,244.827 							"/>
						</g>
						<g>
							<polygon fill="#CED6DB" points="376.266,262.98 364.668,262.98 347.171,244.827 358.764,244.827 							"/>
						</g>
						<g>
							<polygon fill="#CED6DB" points="398.12,262.98 386.523,262.98 369.026,244.827 380.621,244.827 							"/>
						</g>
					</g>
					<g>
						<g>
							<polygon fill="#CED6DB" points="616.83,14.333 628.427,14.333 645.925,-3.82 634.329,-3.82 							"/>
						</g>
						<g>
							<polygon fill="#CED6DB" points="594.976,14.333 606.571,14.333 624.07,-3.82 612.474,-3.82 							"/>
						</g>
						<g>
							<polygon fill="#CED6DB" points="573.118,14.333 584.715,14.333 602.214,-3.82 590.618,-3.82 							"/>
						</g>
						<g>
							<polygon fill="#CED6DB" points="551.263,14.333 562.859,14.333 580.358,-3.82 568.763,-3.82 							"/>
						</g>
						<g>
							<polygon fill="#CED6DB" points="529.408,14.333 541.003,14.333 558.504,-3.82 546.907,-3.82 							"/>
						</g>
						<g>
							<polygon fill="#CED6DB" points="507.551,14.333 519.147,14.333 536.647,-3.82 525.052,-3.82 							"/>
						</g>
						<g>
							<polygon fill="#CED6DB" points="485.695,14.333 497.293,14.333 514.79,-3.82 503.197,-3.82 							"/>
						</g>
						<g>
							<polygon fill="#CED6DB" points="463.841,14.333 475.438,14.333 492.935,-3.82 481.34,-3.82 							"/>
						</g>
					</g>
				</g>
				<g>
					<g>
						<polygon fill="#B0B5B7" points="43.601,213.936 50.706,213.936 60.65,204.633 49.517,194.218 42.412,194.218 53.546,204.633 
													"/>
					</g>
					<g>
						<polygon fill="#B0B5B7" points="54.694,213.936 61.799,213.936 71.743,204.633 60.609,194.218 53.504,194.218 64.639,204.633 
													"/>
					</g>
					<g>
						<polygon fill="#B0B5B7" points="65.787,213.936 72.892,213.936 82.836,204.633 71.702,194.218 64.597,194.218 75.731,204.633 
													"/>
					</g>
					<g>
						<polygon fill="#B0B5B7" points="76.879,213.936 83.984,213.936 93.929,204.633 82.795,194.218 75.69,194.218 86.824,204.633 
													"/>
					</g>
					<g>
						<polygon fill="#B0B5B7" points="87.972,213.936 95.077,213.936 105.021,204.633 93.888,194.218 86.783,194.218 
							97.917,204.633 						"/>
					</g>
					<g>
						<polygon fill="#B0B5B7" points="99.065,213.936 106.17,213.936 116.114,204.633 104.98,194.218 97.876,194.218 
							109.01,204.633 						"/>
					</g>
					<g>
						<polygon fill="#B0B5B7" points="110.158,213.936 117.263,213.936 127.207,204.633 116.073,194.218 108.969,194.218 
							120.103,204.633 						"/>
					</g>
					<g>
						<polygon fill="#B0B5B7" points="121.251,213.936 128.355,213.936 138.3,204.633 127.166,194.218 120.062,194.218 
							131.195,204.633 						"/>
					</g>
					<g>
						<polygon fill="#B0B5B7" points="132.343,213.936 139.448,213.936 149.393,204.633 138.259,194.218 131.154,194.218 
							142.288,204.633 						"/>
					</g>
					<g>
						<polygon fill="#B0B5B7" points="143.436,213.936 150.541,213.936 160.486,204.633 149.352,194.218 142.247,194.218 
							153.381,204.633 						"/>
					</g>
					<g>
						<polygon fill="#B0B5B7" points="154.529,213.936 161.634,213.936 171.579,204.633 160.444,194.218 153.34,194.218 
							164.474,204.633 						"/>
					</g>
				</g>
				<g>
					<g>
						<polygon fill="#CED6DB" points="485.239,64.19 491.125,64.19 499.36,56.485 490.14,47.86 484.255,47.86 493.477,56.485 						
							"/>
					</g>
					<g>
						<polygon fill="#CED6DB" points="494.428,64.19 500.313,64.19 508.548,56.485 499.327,47.86 493.442,47.86 502.664,56.485 
													"/>
					</g>
					<g>
						<polygon fill="#CED6DB" points="503.614,64.19 509.499,64.19 517.735,56.485 508.515,47.86 502.629,47.86 511.852,56.485 
													"/>
					</g>
					<g>
						<polygon fill="#CED6DB" points="512.803,64.19 518.686,64.19 526.923,56.485 517.702,47.86 511.817,47.86 521.039,56.485 
													"/>
					</g>
					<g>
						<polygon fill="#CED6DB" points="521.989,64.19 527.874,64.19 536.11,56.485 526.889,47.86 521.005,47.86 530.227,56.485 
													"/>
					</g>
					<g>
						<polygon fill="#CED6DB" points="531.178,64.19 537.061,64.19 545.298,56.485 536.076,47.86 530.192,47.86 539.414,56.485 
													"/>
					</g>
					<g>
						<polygon fill="#CED6DB" points="540.364,64.19 546.249,64.19 554.485,56.485 545.264,47.86 539.38,47.86 548.602,56.485 
													"/>
					</g>
					<g>
						<polygon fill="#CED6DB" points="549.553,64.19 555.436,64.19 563.673,56.485 554.451,47.86 548.567,47.86 557.788,56.485 
													"/>
					</g>
					<g>
						<polygon fill="#CED6DB" points="558.739,64.19 564.624,64.19 572.861,56.485 563.639,47.86 557.755,47.86 566.976,56.485 
													"/>
					</g>
					<g>
						<polygon fill="#CED6DB" points="567.927,64.19 573.811,64.19 582.048,56.485 572.826,47.86 566.942,47.86 576.163,56.485 
													"/>
					</g>
					<g>
						<polygon fill="#CED6DB" points="577.113,64.19 582.999,64.19 591.235,56.485 582.014,47.86 576.13,47.86 585.351,56.485 
													"/>
					</g>
				</g>
			</g>
		</g>
	</g>
</g>
</svg>
