<?xml version="1.0" encoding="utf-8"?>
<!-- Generator: Adobe Illustrator 17.0.0, SVG Export Plug-In . SVG Version: 6.00 Build 0)  -->
<!DOCTYPE svg PUBLIC "-//W3C//DTD SVG 1.1//EN" "http://www.w3.org/Graphics/SVG/1.1/DTD/svg11.dtd">
<svg version="1.1" id="Capa_1" xmlns="http://www.w3.org/2000/svg" xmlns:xlink="http://www.w3.org/1999/xlink" x="0px" y="0px"
	 width="500px" height="500px" viewBox="0 0 500 500" enable-background="new 0 0 500 500" xml:space="preserve">
<g>
	<path fill="#30548D" d="M268.306,469.122c2.245,3.484,6.351,5.512,11.492,4.448c1.601-0.329,3.1-1.059,4.358-2.053
		c4.825-3.818,4.589-8.685,1.201-13.38l-59.933-83.616l-0.031,0.018c-2.371-3.075-6.042-4.841-11.039-3.81
		c-4.996,1.03-9.184,6.199-7.878,11.228c0.172,0.664,0.425,1.304,0.74,1.898c0.174,0.328,0.346,0.648,0.563,0.94L268.306,469.122z"
		/>
	<path fill-rule="evenodd" clip-rule="evenodd" fill="#30548D" d="M279.926,370.253h0.002c5.748,0,10.453,4.712,10.453,10.453
		v75.817c0,0.846-0.103,1.683-0.299,2.476c0.276-2.416-0.635-4.969-2.441-7.474l-18.168-24.717v-46.102
		C269.473,374.958,274.178,370.252,279.926,370.253L279.926,370.253z"/>
	<path fill="#30548D" d="M50.063,467.232c1.493,3.866,5.627,6.683,10.352,6.683c5.777,0,10.249-4.211,9.988-9.402
		c-0.05-1-0.273-1.962-0.639-2.865l0.011-0.004L30.7,376.44l-0.033,0.011c-1.701-3.493-5.612-5.967-10.038-5.967
		c-5.776,0-10.25,4.21-9.989,9.399c0.047,0.945,0.249,1.859,0.581,2.718l-0.026,0.009L50.063,467.232z"/>
	<path fill="#30548D" d="M73.873,463.109l0.161-0.592c0.15-0.7,0.21-1.433,0.174-2.186c-0.05-0.998-0.272-1.962-0.639-2.867
		l0.012-0.002l-9.44-20.583l27.487-60.439l0.034,0.011c5.621-11.549,24.261-4.128,18.878,7.432L73.873,463.109z"/>
	<path fill="#30548D" d="M148.8,455.127h34.95v0.003c5.711,0.068,10.315,4.253,10.315,9.401c0,5.147-4.604,9.331-10.315,9.4v0.006
		c-15.738-0.013-25.939-0.027-41.677-0.041c-0.057-0.009,6.727-1.714,6.727-10.315V455.127z M148.687,389.123h34.951v-0.004
		c5.71-0.067,10.315-4.252,10.315-9.4c0-4.116-2.944-7.615-7.042-8.887c-2.192-0.679-4.425-0.517-6.685-0.517
		c-14.171,0.011-23.681,0.027-38.266,0.038c-0.056,0.01,6.727,1.717,6.727,10.315V389.123z"/>
	<path fill-rule="evenodd" clip-rule="evenodd" fill="#30548D" d="M314.282,370.475h0.002c5.646,0,10.265,4.617,10.265,10.268
		v35.403l33.54-42.031c3.523-4.415,10.014-5.146,14.427-1.622h0.002c4.413,3.523,5.143,10.012,1.62,14.428l-49.589,62.146v14.514
		c0,5.652-4.619,10.268-10.265,10.268h-0.002c-5.647,0-10.266-4.616-10.266-10.268v-82.838
		C304.016,375.092,308.635,370.475,314.282,370.475"/>
	<path fill-rule="evenodd" clip-rule="evenodd" fill="#30548D" d="M371.71,471.828l-0.002,0.002
		c-3.987,3.988-10.942,2.544-14.389-1.928l-21.098-27.364l13.447-16.276l23.97,31.177C377.079,461.913,375.7,467.839,371.71,471.828
		"/>
	<path fill="#30548D" d="M428.46,377.149c1.493-3.866,5.628-6.683,10.352-6.683c5.777,0,10.249,4.21,9.988,9.402
		c-0.05,1-0.273,1.961-0.64,2.865l0.013,0.004l-39.075,85.204l-0.034-0.011c-1.702,3.493-5.612,5.967-10.038,5.967
		c-5.776,0-10.25-4.21-9.989-9.399c0.047-0.945,0.248-1.86,0.58-2.719l-0.024-0.008L428.46,377.149z"/>
	<path fill="#30548D" d="M451.648,380.199l0.16,0.592c0.151,0.7,0.21,1.433,0.175,2.186c-0.05,0.998-0.273,1.962-0.64,2.867
		l0.012,0.002l-9.439,20.582l10.005,21.995h-18.577l-8.648,19.209h36.033l9.523,20.761l0.034-0.009
		c1.7,3.492,5.611,5.966,10.037,5.966c5.776,0,10.25-4.211,9.99-9.399c-0.048-0.945-0.249-1.859-0.581-2.719l0.024-0.009
		L451.648,380.199z"/>
	<path fill-rule="evenodd" clip-rule="evenodd" fill="#30548D" d="M134.067,370.475h0.002c5.647,0,10.266,4.617,10.266,10.268
		v32.761h19.974l0.386-0.007l0.386,0.007h0.142v0.005c5.664,0.248,10.173,4.453,10.173,9.607c0,5.306-4.791,9.614-10.701,9.614
		c-0.215,0-0.427-0.005-0.641-0.017h-19.719v30.868c0,5.652-4.619,10.268-10.266,10.268h-0.002c-5.647,0-10.266-4.616-10.266-10.268
		v-82.838C123.801,375.092,128.42,370.475,134.067,370.475"/>
	<path fill-rule="evenodd" clip-rule="evenodd" fill="#30548D" d="M214.489,474.167h-0.002c-5.746,0-10.454-4.711-10.454-10.454
		V387.84c0-0.848,0.105-1.683,0.3-2.476c-0.276,2.416,0.635,4.969,2.441,7.474l18.169,24.717v46.158
		C224.943,469.459,220.235,474.167,214.489,474.167"/>
</g>
<g>
	<defs>
		<path id="SVGID_1_" d="M423.224,40.07L322.806,91.708c-0.738,0.296-0.817,1.748-0.191,2.21l18.9,12.371h-0.001l-70.017,116.406
			c9.766,15.648,18.943,32.027,28.708,47.678c5.907,10.191,8.039,20.385,6.388,30.325c36.614-56.775,57.207-99.029,93.762-155.875
			l18.933,12.349c0.627,0.489,1.924-0.169,2.01-0.939l3.749-114.892c0.094-0.667-0.767-1.34-1.468-1.34
			C423.453,40,423.333,40.022,423.224,40.07"/>
	</defs>
	<clipPath id="SVGID_2_">
		<use xlink:href="#SVGID_1_"  overflow="visible"/>
	</clipPath>
	
		<radialGradient id="SVGID_3_" cx="-145.6479" cy="557.4375" r="1.2931" gradientTransform="matrix(26.6749 -39.4319 40.9037 25.8178 -18655.3672 -19808.2383)" gradientUnits="userSpaceOnUse">
		<stop  offset="0" style="stop-color:#282829"/>
		<stop  offset="0.3294" style="stop-color:#2C3F5D"/>
		<stop  offset="1" style="stop-color:#305590"/>
	</radialGradient>
	<polygon clip-path="url(#SVGID_2_)" fill="url(#SVGID_3_)" points="379.167,368.658 548.728,118.007 317.471,-27.959 
		147.91,222.692 	"/>
</g>
<g>
	<defs>
		<path id="SVGID_4_" d="M61.115,146.989c13.6,22.157,27.196,44.31,40.793,66.467l31.238-56.13l-23.666-40.811
			c-6.685-11.523-12.312-21.593-8.93-34.721L61.115,146.989z"/>
	</defs>
	<clipPath id="SVGID_5_">
		<use xlink:href="#SVGID_4_"  overflow="visible"/>
	</clipPath>
	
		<linearGradient id="SVGID_6_" gradientUnits="userSpaceOnUse" x1="-145.142" y1="556.6215" x2="-143.8489" y2="556.6215" gradientTransform="matrix(15.1934 -97.0061 97.0061 15.1934 -51701.5625 -22336.6348)">
		<stop  offset="0" style="stop-color:#305590"/>
		<stop  offset="1" style="stop-color:#373435"/>
	</linearGradient>
	<polygon clip-path="url(#SVGID_5_)" fill="url(#SVGID_6_)" points="131.422,224.468 153.274,84.947 62.84,70.783 40.988,210.304 	
		"/>
</g>
<g>
	<defs>
		<path id="SVGID_7_" d="M122.186,54.512c-17.391,10.783-22.353,33.566-12.009,51.222l122.71,209.424
			c10.342,17.656,33.832,22.793,51.224,12.008c17.39-10.785,22.353-33.568,12.009-51.221L173.408,66.52
			c-6.705-11.443-18.929-17.628-31.437-17.627C135.18,48.893,128.305,50.717,122.186,54.512"/>
	</defs>
	<clipPath id="SVGID_8_">
		<use xlink:href="#SVGID_7_"  overflow="visible"/>
	</clipPath>
	
		<linearGradient id="SVGID_9_" gradientUnits="userSpaceOnUse" x1="-145.0743" y1="557.051" x2="-143.7812" y2="557.051" gradientTransform="matrix(141.0503 259.4965 -259.4965 141.0503 165172.7188 -40817.0781)">
		<stop  offset="0" style="stop-color:#66BC50"/>
		<stop  offset="1" style="stop-color:#E8E62D"/>
	</linearGradient>
	<polygon clip-path="url(#SVGID_8_)" fill="url(#SVGID_9_)" points="-21.453,114.817 146.959,424.65 427.749,272.026 
		259.338,-37.808 	"/>
</g>
</svg>
