<?xml version="1.0" encoding="utf-8"?>
<!-- Generator: Adobe Illustrator 17.0.0, SVG Export Plug-In . SVG Version: 6.00 Build 0)  -->
<!DOCTYPE svg PUBLIC "-//W3C//DTD SVG 1.1//EN" "http://www.w3.org/Graphics/SVG/1.1/DTD/svg11.dtd">
<svg version="1.1" id="Capa_1" xmlns="http://www.w3.org/2000/svg" xmlns:xlink="http://www.w3.org/1999/xlink" x="0px" y="0px"
	 width="1187px" height="560px" viewBox="0 0 1187 560" enable-background="new 0 0 1187 560" xml:space="preserve">
<path fill="#E0E0E0" d="M786,35H401c-28.995,0-52.5,23.505-52.5,52.5v385c0,28.995,23.505,52.5,52.5,52.5h385
	c28.995,0,52.5-23.505,52.5-52.5v-385C838.5,58.505,814.995,35,786,35z M543.315,286.676c-99.19-71.987-98.179-72.169-124.815-92.9
	V166.25c0-14.498,11.752-26.25,26.25-26.25h297.5c14.498,0,26.25,11.752,26.25,26.25v27.526
	c-26.656,20.747-25.631,20.917-124.815,92.901c-11.484,8.373-34.335,28.569-50.185,28.322
	C577.637,315.237,554.817,295.063,543.315,286.676z M768.5,238.191V393.75c0,14.498-11.752,26.25-26.25,26.25h-297.5
	c-14.498,0-26.25-11.752-26.25-26.25V238.191c15.267,11.806,36.454,27.602,104.238,76.797c15.49,11.31,41.535,35.159,70.759,35.011
	c29.408,0.147,55.822-24.107,70.788-35.027C732.051,265.791,753.233,249.996,768.5,238.191z"/>
</svg>
