<?xml version="1.0" encoding="utf-8"?>
<!-- Generator: Adobe Illustrator 17.0.0, SVG Export Plug-In . SVG Version: 6.00 Build 0)  -->
<!DOCTYPE svg PUBLIC "-//W3C//DTD SVG 1.1//EN" "http://www.w3.org/Graphics/SVG/1.1/DTD/svg11.dtd">
<svg version="1.1" id="Capa_1" xmlns="http://www.w3.org/2000/svg" xmlns:xlink="http://www.w3.org/1999/xlink" x="0px" y="0px"
	 width="1187px" height="560px" viewBox="0 0 1187 560" enable-background="new 0 0 1187 560" xml:space="preserve">
<path fill="#E0E0E0" d="M786,35H401c-28.995,0-52.5,23.505-52.5,52.5v385c0,28.995,23.505,52.5,52.5,52.5h150.117V358.411h-68.906
	V280h68.906v-59.762c0-67.977,40.469-105.525,102.452-105.525c29.684,0,60.725,5.294,60.725,5.294v66.719h-34.202
	c-33.698,0-44.209,20.912-44.209,42.361V280h75.228l-12.031,78.411h-63.197V525H786c28.995,0,52.5-23.505,52.5-52.5v-385
	C838.5,58.505,814.995,35,786,35z"/>
</svg>
